<svg xmlns="http://www.w3.org/2000/svg" viewBox="0 0 90 40"><defs><style>.cls-1{fill:#fff;}</style></defs><title>cvv_amex_white</title><g id="Layer_2" data-name="Layer 2"><g id="new"><path class="cls-1" d="M39.57,25c-1.45,3.29-4.26,5.53-7.48,5.53s-6-2.24-7.48-5.53H23.54c1.55,3.86,4.79,6.53,8.55,6.53s7-2.67,8.55-6.53Z"/><path class="cls-1" d="M23.57,20c.2-5.65,3.94-10.18,8.52-10.18S40.41,14.35,40.6,20h1c-.2-6.2-4.38-11.18-9.51-11.18s-9.32,5-9.52,11.18Z"/><path class="cls-1" d="M62,20V36a2,2,0,0,1-2,2H4a2,2,0,0,1-2-2V4A2,2,0,0,1,4,2H60a2,2,0,0,1,2,2V15.48l2-1.14V4a4,4,0,0,0-4-4H4A4,4,0,0,0,0,4V36a4,4,0,0,0,4,4H60a4,4,0,0,0,4-4V21.11Z"/><polygon class="cls-1" points="90 16 73 16 73 10.94 61.65 17.62 73 24.29 73 20 90 20 90 16"/><path class="cls-1" d="M6.29,35A.73.73,0,0,0,7,34.24V32.75A.73.73,0,0,0,6.29,32H5.71a.73.73,0,0,0-.71.75v1.5a.73.73,0,0,0,.71.75Z"/><path class="cls-1" d="M9.29,35a.73.73,0,0,0,.71-.75V32.75A.73.73,0,0,0,9.29,32H8.71a.73.73,0,0,0-.71.75v1.5a.73.73,0,0,0,.71.75Z"/><path class="cls-1" d="M12.29,35a.73.73,0,0,0,.71-.75V32.75a.73.73,0,0,0-.71-.75h-.58a.73.73,0,0,0-.71.75v1.5a.73.73,0,0,0,.71.75Z"/><path class="cls-1" d="M15.29,35a.73.73,0,0,0,.71-.75V32.75a.73.73,0,0,0-.71-.75h-.58a.73.73,0,0,0-.71.75v1.5a.73.73,0,0,0,.71.75Z"/><path class="cls-1" d="M18.29,35a.73.73,0,0,0,.71-.75V32.75a.73.73,0,0,0-.71-.75h-.58a.73.73,0,0,0-.71.75v1.5a.73.73,0,0,0,.71.75Z"/><path class="cls-1" d="M21.29,35a.73.73,0,0,0,.71-.75V32.75a.73.73,0,0,0-.71-.75h-.58a.73.73,0,0,0-.71.75v1.5a.73.73,0,0,0,.71.75Z"/><path class="cls-1" d="M24.29,35a.73.73,0,0,0,.71-.75V32.75a.73.73,0,0,0-.71-.75h-.58a.73.73,0,0,0-.71.75v1.5a.73.73,0,0,0,.71.75Z"/><path class="cls-1" d="M27.29,35a.73.73,0,0,0,.71-.75V32.75a.73.73,0,0,0-.71-.75h-.58a.73.73,0,0,0-.71.75v1.5a.73.73,0,0,0,.71.75Z"/><path class="cls-1" d="M24.29,24a.73.73,0,0,0,.71-.75V21.75a.73.73,0,0,0-.71-.75h-.58a.73.73,0,0,0-.71.75v1.5a.73.73,0,0,0,.71.75Z"/><path class="cls-1" d="M27.29,24a.73.73,0,0,0,.71-.75V21.75a.73.73,0,0,0-.71-.75h-.58a.73.73,0,0,0-.71.75v1.5a.73.73,0,0,0,.71.75Z"/><path class="cls-1" d="M30.29,24a.73.73,0,0,0,.71-.75V21.75a.73.73,0,0,0-.71-.75h-.58a.73.73,0,0,0-.71.75v1.5a.73.73,0,0,0,.71.75Z"/><path class="cls-1" d="M33.29,24a.73.73,0,0,0,.71-.75V21.75a.73.73,0,0,0-.71-.75h-.58a.73.73,0,0,0-.71.75v1.5a.73.73,0,0,0,.71.75Z"/><path class="cls-1" d="M36.29,24a.73.73,0,0,0,.71-.75V21.75a.73.73,0,0,0-.71-.75h-.58a.73.73,0,0,0-.71.75v1.5a.73.73,0,0,0,.71.75Z"/><path class="cls-1" d="M39.29,24a.73.73,0,0,0,.71-.75V21.75a.73.73,0,0,0-.71-.75h-.58a.73.73,0,0,0-.71.75v1.5a.73.73,0,0,0,.71.75Z"/><path class="cls-1" d="M10.29,24a.73.73,0,0,0,.71-.75V21.75a.73.73,0,0,0-.71-.75H9.71a.73.73,0,0,0-.71.75v1.5a.73.73,0,0,0,.71.75Z"/><path class="cls-1" d="M13.29,24a.73.73,0,0,0,.71-.75V21.75a.73.73,0,0,0-.71-.75h-.58a.73.73,0,0,0-.71.75v1.5a.73.73,0,0,0,.71.75Z"/><path class="cls-1" d="M16.29,24a.73.73,0,0,0,.71-.75V21.75a.73.73,0,0,0-.71-.75h-.58a.73.73,0,0,0-.71.75v1.5a.73.73,0,0,0,.71.75Z"/><path class="cls-1" d="M19.29,24a.73.73,0,0,0,.71-.75V21.75a.73.73,0,0,0-.71-.75h-.58a.73.73,0,0,0-.71.75v1.5a.73.73,0,0,0,.71.75Z"/><path class="cls-1" d="M44.29,24a.73.73,0,0,0,.71-.75V21.75a.73.73,0,0,0-.71-.75h-.58a.73.73,0,0,0-.71.75v1.5a.73.73,0,0,0,.71.75Z"/><path class="cls-1" d="M47.29,24a.73.73,0,0,0,.71-.75V21.75a.73.73,0,0,0-.71-.75h-.58a.73.73,0,0,0-.71.75v1.5a.73.73,0,0,0,.71.75Z"/><path class="cls-1" d="M50.29,24a.73.73,0,0,0,.71-.75V21.75a.73.73,0,0,0-.71-.75h-.58a.73.73,0,0,0-.71.75v1.5a.73.73,0,0,0,.71.75Z"/><path class="cls-1" d="M53.29,24a.73.73,0,0,0,.71-.75V21.75a.73.73,0,0,0-.71-.75h-.58a.73.73,0,0,0-.71.75v1.5a.73.73,0,0,0,.71.75Z"/><path class="cls-1" d="M56.29,24a.73.73,0,0,0,.71-.75V21.75a.73.73,0,0,0-.71-.75h-.58a.73.73,0,0,0-.71.75v1.5a.73.73,0,0,0,.71.75Z"/><path class="cls-1" d="M50.29,19a.73.73,0,0,0,.71-.75V16.75a.73.73,0,0,0-.71-.75h-.58a.73.73,0,0,0-.71.75v1.5a.73.73,0,0,0,.71.75Z"/><path class="cls-1" d="M53.29,19a.73.73,0,0,0,.71-.75V16.75a.73.73,0,0,0-.71-.75h-.58a.73.73,0,0,0-.71.75v1.5a.73.73,0,0,0,.71.75Z"/><path class="cls-1" d="M56.29,19a.73.73,0,0,0,.71-.75V16.75a.73.73,0,0,0-.71-.75h-.58a.73.73,0,0,0-.71.75v1.5a.73.73,0,0,0,.71.75Z"/><path class="cls-1" d="M59.29,19a.73.73,0,0,0,.71-.75V16.75a.73.73,0,0,0-.71-.75h-.58a.73.73,0,0,0-.71.75v1.5a.73.73,0,0,0,.71.75Z"/></g></g></svg>