<svg xmlns="http://www.w3.org/2000/svg" viewBox="0 0 90 40"><title>cvv_black</title><g id="Layer_2" data-name="Layer 2"><g id="new"><rect y="9" width="64" height="8"/><path d="M59,22.25v8H21v-8H59m1-1H20v10H60Z"/><path d="M50.29,24.75h-.58a.73.73,0,0,0-.71.75V27a.73.73,0,0,0,.71.75h.58A.73.73,0,0,0,51,27V25.5A.73.73,0,0,0,50.29,24.75Z"/><path d="M53.29,24.75h-.58a.73.73,0,0,0-.71.75V27a.73.73,0,0,0,.71.75h.58A.73.73,0,0,0,54,27V25.5A.73.73,0,0,0,53.29,24.75Z"/><path d="M56.29,24.75h-.58a.73.73,0,0,0-.71.75V27a.73.73,0,0,0,.71.75h.58A.73.73,0,0,0,57,27V25.5A.73.73,0,0,0,56.29,24.75Z"/><path d="M62,28.67V36a2,2,0,0,1-2,2H4a2,2,0,0,1-2-2V4A2,2,0,0,1,4,2H60a2,2,0,0,1,2,2V24l2-1.13V4a4,4,0,0,0-4-4H4A4,4,0,0,0,0,4V36a4,4,0,0,0,4,4H60a4,4,0,0,0,4-4V29.8Z"/><polygon points="90 24 73 24 73 19.5 61.65 26.18 73 32.85 73 28 90 28 90 24"/></g></g></svg>