<svg xmlns="http://www.w3.org/2000/svg" xmlns:xlink="http://www.w3.org/1999/xlink" viewBox="0 0 43 27"><defs><style>.cls-1{fill:#e6e6e6;}.cls-2{fill:url(#radial-gradient);}.cls-3{fill:#243385;}</style><radialGradient id="radial-gradient" cx="7.36" cy="12.898" r="1.944" gradientUnits="userSpaceOnUse"><stop offset="0.003" stop-color="#fff"/><stop offset="1" stop-color="#f5bd21"/></radialGradient></defs><title>vendor_cedyna</title><g id="Layer_2" data-name="Layer 2"><g id="Layer_1-2" data-name="Layer 1"><path class="cls-1" d="M0,22.988V4.013a1.445,1.445,0,0,0,.093-.431A4.521,4.521,0,0,1,4.561,0H38.372a5.857,5.857,0,0,1,.621.032,4.489,4.489,0,0,1,4,4.38q.017,9.075,0,18.15A4.481,4.481,0,0,1,39.446,26.9a1.973,1.973,0,0,0-.485.105H4.036c-.021-.043-.063-.033-.1-.038A4.518,4.518,0,0,1,.1,23.436,1.67,1.67,0,0,0,0,22.988Z"/><path class="cls-2" d="M9.311,12.9a1.951,1.951,0,0,1-3.9,0A1.919,1.919,0,0,1,5.8,11.736,1.953,1.953,0,0,1,9.311,12.9"/><path class="cls-3" d="M7.192,15.93a3.045,3.045,0,0,1-3.235-2.975A3.149,3.149,0,0,1,7.215,9.876a3.652,3.652,0,0,1,2.8,1.245l.537-.364A5.175,5.175,0,0,0,6.7,9.178c-2.613,0-4.732,1.692-4.732,3.777S4.087,16.732,6.7,16.732a5.075,5.075,0,0,0,4.041-1.808l-.6-.366A3.72,3.72,0,0,1,7.192,15.93"/><path class="cls-3" d="M14.375,11.863c-1.849.013-3.172,1.013-3.172,2.438,0,1.346,1.378,2.41,3.071,2.428a2.95,2.95,0,0,0,2.785-1.171l-.475-.167a2.394,2.394,0,0,1-1.916.9,1.982,1.982,0,0,1-2.029-1.879h4.7a1.1,1.1,0,0,0,0-.115c-.088-1.407-1.077-2.452-2.959-2.438m-1.716,2.1a1.963,1.963,0,0,1,2.007-1.719A2.053,2.053,0,0,1,16.7,13.965Zm9.463-2.009H20.916c-2.065,0-3.1,1.05-3.1,2.345s1.187,2.338,3.1,2.338H23.43v-7.1H22.122Zm0,4.266H21.3a1.948,1.948,0,1,1,0-3.9h.824v3.9Zm17.29-4.266c-2.067,0-3.1,1.05-3.1,2.345s1.184,2.338,3.1,2.338h2.509V11.956Zm1.2,4.263h-.822a1.948,1.948,0,1,1,0-3.895h.822v3.894Zm-13.348-.9-1.725-3.366H24.049l2.477,4.632s-.093.185-.4.706a1.244,1.244,0,0,1-.644.613v.663a2.149,2.149,0,0,0,1.114-.854c.213-.355,3.252-5.766,3.252-5.766h-.757ZM33.3,11.942H30.417v4.7h1.315V12.3h.685a1.8,1.8,0,0,1,2.037,1.9V16.64h1.318V14.2C35.772,12.285,34.55,11.942,33.3,11.942Z"/></g></g></svg>