<svg xmlns="http://www.w3.org/2000/svg" viewBox="0 0 43 27"><defs><style>.cls-1{fill:#fff;}.cls-2{fill:#018d96;}.cls-3{fill:#01548e;}.cls-4{fill:#e93a4a;}.cls-5{fill:#bfbebe;}</style></defs><title>vendor_unionpay</title><g id="Layer_2" data-name="Layer 2"><g id="Layer_1-2" data-name="Layer 1"><rect class="cls-1" x="3.583" y="5.804" width="37.025" height="16.776"/><path class="cls-2" d="M29.546,0h9.422c.013.038.047.033.077.037a4.437,4.437,0,0,1,2.772,1.428,4.271,4.271,0,0,1,1.14,2.464c-.023.076-.05.152-.068.23Q41.5,10.081,40.118,16.005q-.917,3.917-1.83,7.833a4.236,4.236,0,0,1-.73,1.74,3.892,3.892,0,0,1-2.035,1.369c-.075.005-.15.015-.225.015H23.384c-.069,0-.137,0-.206-.006-.034-.015-.067-.034-.1-.046a2.037,2.037,0,0,1-1.341-1.985,6.014,6.014,0,0,1,.19-1.137c.174-.777.357-1.552.536-2.328.213,0,.426-.007.639-.007.076,0,.128-.011.152-.1.069-.252.145-.5.223-.752.03-.1,0-.118-.1-.108-.23.024-.461.041-.691.061l.489-2.123c.734,0,1.467-.009,2.2-.011a1.354,1.354,0,0,0,.58-.134,1.393,1.393,0,0,0,.674-.947c.235-.729.445-1.466.672-2.2.04-.128,0-.146-.114-.144-.532.008-1.066,0-1.6.016A2.521,2.521,0,0,0,24,15.5c-.028.022-.058.067-.111.038.006-.189.136-.35.113-.541a3.024,3.024,0,0,1,.1-.509c.076-.381.206-.75.248-1.138a3.755,3.755,0,0,1,.45,0c.173.019.232-.056.255-.213.074-.506.189-1,.3-1.5a8.847,8.847,0,0,0,.248-1.3.761.761,0,0,0-.348-.737q.353-1.51.7-3.02c.3-1.268.6-2.534.887-3.8A3.669,3.669,0,0,1,28.182.69,4.077,4.077,0,0,1,29.546,0Zm.419,15.4a.217.217,0,0,0-.029-.024A1.57,1.57,0,0,1,30,15.156c.064-.143,0-.164-.128-.161-.308.007-.616.013-.923,0-.158-.007-.212.049-.256.193-.494,1.656-1,3.308-1.5,4.962-.036.12-.074.21-.225.18-.1-.019-.112.056-.132.122-.057.185-.105.373-.172.553-.054.143-.007.166.128.165.741,0,1.482,0,2.223,0,.113,0,.191,0,.121.146-.053.105-.018.14.1.138.295-.006.59-.007.885,0,.155,0,.269,0,.308-.2.033-.165.2-.082.305-.075.122.008.035.107.019.155-.038.113.01.126.105.124.226,0,.453-.012.679,0a1.276,1.276,0,0,0,1.21-.612c.183-.272.388-.529.609-.828.046.3.084.561.124.819a.683.683,0,0,0,.658.579c.2.007.4,0,.6.01.111.006.155-.039.181-.139.044-.169.1-.334.153-.5.084-.274.085-.283-.2-.287a.237.237,0,0,1-.273-.25c-.028-.273-.085-.542-.12-.814-.013-.1-.051-.127-.145-.123-.146,0-.293,0-.459,0a.506.506,0,0,1,.521-.317c.356.025.715,0,1.073.008.105,0,.159-.024.185-.131a4.324,4.324,0,0,1,.153-.5c.043-.113,0-.126-.1-.124-.226,0-.452,0-.678,0-.181,0-.362-.009-.544-.014a3.171,3.171,0,0,1,.142-.535c.024-.11.085-.131.187-.13.364.006.729,0,1.093.005.106,0,.157-.029.184-.133.051-.193.106-.385.174-.572.044-.121.014-.15-.11-.148-.427,0-.854,0-1.281,0q-1.261,0-2.524,0c-.069,0-.154-.032-.185.076-.071.251-.148.5-.222.748.027.012.038.021.05.021.42,0,.841.005,1.262,0,.116,0,.165.017.117.144a3.311,3.311,0,0,0-.128.411.144.144,0,0,1-.171.126c-.27,0-.54,0-.81,0-.181,0-.405-.054-.533.03s-.13.336-.187.513C31.48,19,31.484,19,31.7,19h1.037a.089.089,0,0,1-.021.106c-.271.382-.556.755-.812,1.148a.789.789,0,0,1-.759.382c-.152,0-.194-.037-.126-.175.079-.161.031-.228-.149-.2-.142.021-.135-.052-.1-.154.088-.273.168-.548.252-.823.326-1.074.654-2.147.977-3.222.033-.109.072-.184.2-.159.228.044.354-.045.373-.279,0-.02.017-.048.062-.04,0,.078,0,.158,0,.238.01.465.2.655.665.665.276.006.552,0,.828,0,.074,0,.133,0,.158-.091.06-.216.127-.43.2-.644.027-.085,0-.1-.085-.11-.39-.028-.389-.031-.4-.424a.351.351,0,0,1,0-.056c.019-.126-.037-.158-.159-.156-.69.013-1.382,0-2.072.029A3.182,3.182,0,0,0,29.965,15.4Zm-.894-8.565c-.509,0-1.017.028-1.525-.008-.125-.008-.17.021-.2.149-.149.72-.3,1.44-.468,2.156q-.485,2.037-.994,4.068c-.038.153,0,.175.14.172q.659-.012,1.317,0c.124,0,.155-.042.178-.153.136-.659.264-1.32.435-1.972a.269.269,0,0,1,.3-.235,7.88,7.88,0,0,0,1.389-.079,2.788,2.788,0,0,0,2.386-2.781,1.152,1.152,0,0,0-.922-1.2,2.142,2.142,0,0,0-.3-.06A12.149,12.149,0,0,0,29.071,6.831Zm8.575,4.55c-.029-.567-.06-1.133-.085-1.7-.006-.151-.061-.194-.211-.161a8.836,8.836,0,0,1-1.093.193c-.191.017-.215.1-.188.271.175,1.091.3,2.186.417,3.284a.329.329,0,0,1-.027.217c-.393.674-.777,1.354-1.205,2.007-.051.078-.117.158-.206.141-.3-.056-.335.148-.385.351a2.334,2.334,0,0,1-.1.339c-.051.126,0,.148.114.146.22,0,.44.007.659.009a1.09,1.09,0,0,0,1.038-.584c.292-.516.6-1.025.881-1.545.86-1.565,1.768-3.1,2.663-4.648.03-.051.1-.1.06-.164s-.129-.021-.191-.009c-.358.069-.714.144-1.076.179a.323.323,0,0,0-.3.23A13.275,13.275,0,0,1,37.646,11.381Zm-3.8-1.4a.893.893,0,0,0-1.078-.347,2.3,2.3,0,0,0-.385.149A2.768,2.768,0,0,0,31,12.48a1.049,1.049,0,0,0,.718.88,1.3,1.3,0,0,0,1.4-.191c-.022.259-.022.256.24.247s.527-.012.79-.013c.488,0,.5,0,.577-.467.189-1.081.456-2.145.711-3.211.03-.126.025-.17-.125-.143-.426.076-.853.141-1.281.205C33.929,9.8,33.849,9.832,33.846,9.977ZM25.705,20.553c-.269.015-.513.031-.757.04-.191.007-.246-.049-.249-.241,0-.156.007-.312,0-.468,0-.088.033-.119.121-.12.213,0,.427-.014.64-.026a.793.793,0,0,0,.785-.652c.031-.128.049-.258.085-.384s-.017-.128-.112-.125a4.735,4.735,0,0,1-.546,0c-.187-.017-.3.031-.319.232a.745.745,0,0,1-.038.125.223.223,0,0,1-.232.175c-.336.016-.345.02-.324-.311.01-.151-.045-.177-.179-.172-.27.009-.54.01-.81,0-.141-.006-.192.027-.194.181,0,.705-.026,1.41-.041,2.114-.007.347.09.46.442.491.451.038.9.021,1.355.025a.117.117,0,0,0,.135-.1C25.542,21.086,25.62,20.836,25.705,20.553Z"/><path class="cls-3" d="M24.348,13.351c-.042.388-.172.757-.248,1.138a3.024,3.024,0,0,0-.1.509c-.325,0-.651.014-.977.006-.154,0-.23.032-.272.193-.092.356-.211.7-.317,1.056q-.691,2.3-1.38,4.6a.4.4,0,0,0,.407.569c.331.021.663.027.995.04-.179.776-.362,1.551-.536,2.328a6.014,6.014,0,0,0-.19,1.137,2.037,2.037,0,0,0,1.341,1.985c.035.012.068.031.1.046-.05,0-.1.006-.151.006H11.354c-.057,0-.113,0-.169-.006a2.432,2.432,0,0,1-.7-.363,2.109,2.109,0,0,1-.7-2.263Q10.9,19.514,12.038,14.7q.48-2.048.963-4.094c.152.032.174.149.17.272a2.7,2.7,0,0,1-.041.334c-.111.664-.271,1.318-.432,1.972-.04.165.007.189.157.183.363-.015.728-.024,1.091-.02.143,0,.2-.043.223-.182.1-.609.229-1.213.367-1.814a5.623,5.623,0,0,0,.185-1.029.72.72,0,0,0-.764-.821,2.359,2.359,0,0,0-.723.107q.8-3.423,1.6-6.846A3.684,3.684,0,0,1,16.517.447,5.091,5.091,0,0,1,17.524,0H29.546a4.077,4.077,0,0,0-1.364.69A3.669,3.669,0,0,0,26.84,2.771c-.289,1.269-.591,2.535-.887,3.8q-.354,1.509-.7,3.02a1.442,1.442,0,0,0-.759-.072,2.657,2.657,0,0,0-.891.335l-.023-.024c.015-.066.027-.134.046-.2.042-.142-.008-.178-.15-.152-.42.076-.84.148-1.262.211a.161.161,0,0,0-.16.167c-.026.222-.058.445-.1.666-.148.893-.365,1.771-.586,2.648-.043.169,0,.2.163.2.345-.017.691-.033,1.035-.018.2.01.27-.061.3-.247.124-.726.282-1.445.448-2.162a.427.427,0,0,1,.482-.353.226.226,0,0,1,.248.245,2.318,2.318,0,0,1-.034.353c-.11.678-.275,1.344-.437,2.011-.033.136-.012.18.132.171C23.921,13.355,24.135,13.356,24.348,13.351ZM19.7,9.523a2.158,2.158,0,0,0-1.843.866,3.053,3.053,0,0,0-.548,1.964,1.01,1.01,0,0,0,.69.939,2.225,2.225,0,0,0,.85.138,2.14,2.14,0,0,0,2-1.006,3.181,3.181,0,0,0,.453-1.771,1.044,1.044,0,0,0-.705-.99A2.379,2.379,0,0,0,19.7,9.523Zm.483,7.422c-.345,0-.69,0-1.035,0-.231,0-.527-.1-.675.038s-.162.431-.235.656l0,.018c-.044.093-.007.12.087.117.176,0,.352,0,.527,0,.1,0,.142.016.1.125q-.078.229-.139.465a.125.125,0,0,1-.146.107c-.189,0-.377,0-.565,0a.128.128,0,0,0-.148.106q-.091.324-.2.645c-.029.087-.017.124.085.121.169,0,.339,0,.508,0,.121,0,.167.012.12.153-.137.414-.258.833-.384,1.251a.467.467,0,0,0,.409.677,16.37,16.37,0,0,0,1.786.035c.075,0,.092-.045.109-.1.071-.239.143-.477.218-.715.029-.091.007-.13-.093-.11-.055.01-.111.018-.167.024a2.089,2.089,0,0,1-.748.024c-.114-.028-.156-.072-.116-.2.1-.308.194-.619.282-.93a.146.146,0,0,1,.171-.125c.376.005.753,0,1.129.005a.172.172,0,0,0,.206-.156,5.6,5.6,0,0,1,.165-.535c.042-.119.041-.175-.117-.171-.37.011-.74,0-1.111.006-.11,0-.148-.021-.1-.136a3.425,3.425,0,0,0,.132-.429c.025-.106.078-.136.184-.134.364.006.728,0,1.092.005.11,0,.17-.025.2-.139.046-.181.1-.359.167-.535.044-.12.027-.162-.114-.16C21.236,16.95,20.708,16.945,20.181,16.945Zm-4.628-3.578v-.019c.213,0,.427-.006.639,0,.119,0,.173-.041.189-.154.02-.142.041-.284.073-.423q.264-1.148.532-2.292c.046-.2.037-.2-.161-.17-.413.069-.827.141-1.242.2a.182.182,0,0,0-.182.189c-.034.265-.076.53-.122.793a9.727,9.727,0,0,1-.447,1.695c-.052.142-.014.19.139.182C15.165,13.359,15.359,13.367,15.553,13.367Zm5.483,1.625c-.275,0-.518,0-.761,0a1.541,1.541,0,0,0-.63.028c-.181.09-.245.349-.338.545a.571.571,0,0,1-.644.392.12.12,0,0,0-.152.1q-.09.315-.19.626c-.027.086,0,.112.083.109.138,0,.276,0,.414,0a1.625,1.625,0,0,0,1.107-.391.311.311,0,0,1,.223-.07c.553,0,1.105,0,1.658,0,.064,0,.141.026.169-.073.073-.256.152-.512.235-.792H20.793Zm-4.87-4.752a1.227,1.227,0,0,0,.919-.406.37.37,0,0,0-.117-.621,1.25,1.25,0,0,0-1.409.366.368.368,0,0,0,.134.558A.911.911,0,0,0,16.166,10.24Z"/><path class="cls-4" d="M13,10.608q-.481,2.046-.963,4.094Q10.91,19.516,9.789,24.33a2.109,2.109,0,0,0,.7,2.263,2.432,2.432,0,0,0,.7.363c-.063,0-.126.006-.188.006q-3.191,0-6.381,0a5.487,5.487,0,0,1-.6-.032A4.513,4.513,0,0,1,.1,23.212c.014-.086.023-.173.042-.257Q1.364,17.728,2.589,12.5q1.1-4.718,2.2-9.438A4.016,4.016,0,0,1,5.827,1.025,4.027,4.027,0,0,1,7.613,0h9.911a5.091,5.091,0,0,0-1.007.447,3.684,3.684,0,0,0-1.685,2.317q-.8,3.423-1.6,6.846l-.529.254a.373.373,0,0,1,.039-.222c.045-.137.013-.188-.137-.161-.426.074-.853.147-1.28.213a.153.153,0,0,0-.153.152c-.019.168-.042.335-.068.5-.147.949-.383,1.88-.61,2.813-.049.2-.044.21.168.205.351-.007.7-.028,1.053-.016.18.006.234-.059.266-.221.142-.721.294-1.441.448-2.16C12.5,10.662,12.675,10.554,13,10.608Zm-6.18,2.771a5.4,5.4,0,0,0,.751-.052,2.9,2.9,0,0,0,1.737-.813,2.944,2.944,0,0,0,.676-1.32c.371-1.405.73-2.812,1.1-4.218.03-.115-.013-.122-.107-.122-.421,0-.841,0-1.262-.009-.129,0-.168.034-.194.155q-.309,1.454-.633,2.906a8,8,0,0,1-.44,1.621,1.233,1.233,0,0,1-.91.74c-.677.142-1.158-.235-1.092-.87a7.365,7.365,0,0,1,.175-1.032C6.9,9.239,7.175,8.113,7.5,7c.036-.125,0-.147-.116-.145-.408.007-.816,0-1.224,0-.15,0-.335-.05-.44.019s-.09.272-.12.417c-.307,1.476-.735,2.927-.939,4.425a1.244,1.244,0,0,0,.887,1.475A3.793,3.793,0,0,0,6.821,13.379Z"/><path class="cls-5" d="M7.613,0A4.027,4.027,0,0,0,5.827,1.025,4.016,4.016,0,0,0,4.791,3.061Q3.7,7.783,2.589,12.5,1.365,17.728.141,22.955c-.019.084-.028.171-.042.257-.076-.111.053-.277-.1-.369v-.075c.064-.054.038-.127.038-.193q0-9.093,0-18.188c0-.065.026-.138-.038-.193V4.119c.079-.015.066-.08.072-.133A4.477,4.477,0,0,1,3.344.17C3.583.1,3.828.056,4.07,0Z"/><path class="cls-5" d="M35.523,26.947a3.892,3.892,0,0,0,2.035-1.369,4.236,4.236,0,0,0,.73-1.74q.911-3.918,1.83-7.833Q41.5,10.081,42.889,4.159c.018-.078.045-.154.068-.23L43,4.044V22.956c-.043.037-.034.09-.041.139a4.506,4.506,0,0,1-3.935,3.831c-.053.007-.118,0-.132.074h-.075c-.048-.059-.115-.039-.175-.039q-1.316,0-2.632,0C35.848,26.961,35.685,26.952,35.523,26.947Z"/><path class="cls-3" d="M22.686,20.555c-.172.01-.235-.077-.19-.232.178-.6.362-1.206.542-1.81.022-.073.06-.105.137-.081Z"/><path class="cls-2" d="M29.262,19.294h.225c.278,0,.279,0,.2.256-.06.2-.125.4-.181.606a.137.137,0,0,1-.159.116c-.257-.006-.513-.006-.77,0-.113,0-.122-.037-.091-.133.078-.236.153-.473.217-.713a.15.15,0,0,1,.182-.134C29.011,19.3,29.137,19.294,29.262,19.294Z"/><path class="cls-2" d="M28.926,18.7c.113-.376.218-.725.322-1.075.019-.063.07-.062.121-.062.264,0,.527,0,.791,0,.115,0,.128.044.091.134a.166.166,0,0,0-.013.035c-.068.416-.2.743-.729.742A1.818,1.818,0,0,0,28.926,18.7Z"/><path class="cls-2" d="M29.438,17.013c.117-.379.221-.715.324-1.051.02-.066.071-.06.12-.06.263,0,.526,0,.789,0,.087,0,.127.013.092.116-.068.193-.122.391-.181.588-.016.055-.032.106-.106.109A2.7,2.7,0,0,0,29.438,17.013Z"/><path class="cls-2" d="M29.965,15.4l-.024.022,0-.046A.217.217,0,0,1,29.965,15.4Z"/><path class="cls-2" d="M28.617,10c-.364,0-.364,0-.283-.358.132-.582.268-1.164.4-1.748.018-.084.044-.113.133-.1.311.032.624.049.936.084a.619.619,0,0,1,.507.591,1.4,1.4,0,0,1-1.2,1.494C28.943,9.984,28.779,9.991,28.617,10Z"/><path class="cls-2" d="M23.554,16.814c.045-.277.157-.535.227-.8.017-.068.058-.086.122-.086.6,0,1.191,0,1.786,0,.089,0,.114.027.084.108,0,.012-.007.024-.011.036-.089.327-.09.338-.427.325a2.653,2.653,0,0,0-1.751.428c-.006,0-.022,0-.033-.007Z"/><path class="cls-2" d="M23.445,17.259l1.821-.012c.081,0,.111.021.091.109-.054.251-.079.281-.337.282-.551,0-1.1,0-1.653-.005Z"/><path class="cls-3" d="M23.445,17.259l-.078.374c-.022,0-.066.01-.059-.017C23.338,17.492,23.333,17.353,23.445,17.259Z"/><path class="cls-2" d="M23.551,16.812c.013.011.011.019-.007.022l0-.011a.048.048,0,0,1,.014-.009Z"/><path class="cls-2" d="M33.659,11.067a5.569,5.569,0,0,1-.329,1.207.464.464,0,0,1-.183.209c-.174.1-.361.209-.561.092s-.174-.316-.153-.5A4.742,4.742,0,0,1,32.691,11a1.159,1.159,0,0,1,.186-.344.454.454,0,0,1,.483-.176c.186.045.242.2.274.365C33.645,10.909,33.648,10.971,33.659,11.067Z"/><path class="cls-3" d="M23.6,9.857l-.025.021c-.021-.014-.012-.03,0-.044Z"/><path class="cls-3" d="M19.859,10.84a4.063,4.063,0,0,1-.316,1.315.835.835,0,0,1-.222.3.366.366,0,0,1-.4.08.332.332,0,0,1-.184-.341,4.066,4.066,0,0,1,.251-1.237,1.23,1.23,0,0,1,.186-.364.513.513,0,0,1,.234-.18.3.3,0,0,1,.45.261A1.177,1.177,0,0,1,19.859,10.84Z"/></g></g></svg>