<svg xmlns="http://www.w3.org/2000/svg" viewBox="0 0 43 27"><defs><style>.cls-1{fill:#e6e6e6;}.cls-2{fill:#062d19;}.cls-3{fill:#41b14e;}</style></defs><title>vendor_uatp</title><g id="Layer_2" data-name="Layer 2"><g id="Layer_1-2" data-name="Layer 1"><rect class="cls-1" width="43" height="27" rx="4.406"/><path class="cls-2" d="M12.1,13.909c0,1.319,0,2.637,0,3.956a.175.175,0,0,1-.158.206,17.2,17.2,0,0,1-2.326.349,8.649,8.649,0,0,1-1.2.06,4.707,4.707,0,0,1-2.183-.551,2.678,2.678,0,0,1-1.29-1.95,6.319,6.319,0,0,1-.067-1.157c0-1.631,0-3.262,0-4.893,0-.14.034-.18.176-.178.6.007,1.194.008,1.791,0,.151,0,.173.052.173.185q-.007,2.409,0,4.818a3.159,3.159,0,0,0,.145,1.034,1.292,1.292,0,0,0,1.207.917,6.83,6.83,0,0,0,1.428-.081c.139-.017.184-.08.183-.222,0-2.149,0-4.3-.007-6.449,0-.152.032-.2.2-.2.584.01,1.169.009,1.753,0,.145,0,.191.028.19.184C12.093,11.259,12.1,12.584,12.1,13.909Z"/><path class="cls-2" d="M31.684,14.082c0-1.362,0-2.724,0-4.085,0-.136.036-.179.171-.2A15.238,15.238,0,0,1,35.1,9.642a3.445,3.445,0,0,1,2.142.855,2.811,2.811,0,0,1,.823,1.6,3.4,3.4,0,0,1-.172,1.912,2.713,2.713,0,0,1-1.858,1.615A5.649,5.649,0,0,1,34,15.813c-.157-.009-.208.027-.207.189.008.712,0,1.425.007,2.137,0,.141-.026.193-.184.19q-.876-.017-1.753,0c-.149,0-.185-.033-.185-.18C31.686,16.793,31.684,15.438,31.684,14.082ZM33.8,12.761c0,.362,0,.725,0,1.087,0,.111.039.16.15.164a5.024,5.024,0,0,0,1-.021,1.132,1.132,0,0,0,1.018-1.018,1.172,1.172,0,0,0-.718-1.341,2.832,2.832,0,0,0-1.263-.115c-.137.006-.187.057-.184.194C33.8,12.061,33.8,12.411,33.8,12.761Z"/><path class="cls-2" d="M22.517,11.626c0-.575,0-1.15-.006-1.724,0-.136.051-.15.165-.15q1.442.006,2.884,0c.087,0,.175-.013.262-.02l1.689.008,2.253.008a.4.4,0,0,1,.033.217c0,.482-.007.963,0,1.444,0,.152-.031.2-.193.2-.729-.01-1.458,0-2.187-.008-.165,0-.215.048-.215.214.005,2.106,0,4.212.007,6.317,0,.158-.041.2-.2.2-.571-.01-1.144-.009-1.715,0-.157,0-.2-.039-.2-.2q.008-2.952,0-5.905c0-.068-.01-.136-.015-.2a.826.826,0,0,1-.006-.111c.013-.32-.024-.281-.291-.282Z"/><path class="cls-2" d="M14,15.919c.207-.414.35-.853.519-1.281q.922-2.351,1.829-4.707a.24.24,0,0,1,.272-.182q1.083.015,2.166,0a.259.259,0,0,1,.289.191q.572,1.484,1.15,2.964c.021.053.044.1.067.155a5.614,5.614,0,0,1-.786.509,5.125,5.125,0,0,1-1,.53q-.36-1.022-.719-2.043c-.017-.046-.023-.106-.084-.11s-.064.062-.08.107c-.252.69-.513,1.377-.753,2.071a4.34,4.34,0,0,0-.31.889l-.31.867a7.89,7.89,0,0,0-.409,1.041c-.163.418-.316.839-.464,1.263a.179.179,0,0,1-.2.144c-.64-.005-1.28-.007-1.92,0-.156,0-.16-.044-.112-.169.237-.615.507-1.217.7-1.848Z"/><path class="cls-3" d="M16.247,15.879q.156-.434.31-.867a.368.368,0,0,0,.181-.037c.339-.155.683-.3,1.017-.465A3.171,3.171,0,0,0,18.5,14.1a5.125,5.125,0,0,0,1-.53,5.614,5.614,0,0,0,.786-.509,1.027,1.027,0,0,0,.42-.228q.918-.58,1.807-1.2l2.274,0c.267,0,.3-.038.291.282a.826.826,0,0,0,.006.111,5.16,5.16,0,0,0-.817.452c-.937.541-1.876,1.076-2.85,1.55a25.149,25.149,0,0,1-3.577,1.431C17.318,15.618,16.787,15.766,16.247,15.879Z"/><path class="cls-2" d="M21.159,18.325c-.339,0-.679,0-1.018,0a.155.155,0,0,1-.176-.122c-.3-.841-.6-1.681-.9-2.52-.032-.089-.01-.132.085-.166.564-.205,1.117-.439,1.66-.694.118-.055.155-.021.193.077q.637,1.641,1.279,3.279c.047.12.021.149-.106.146C21.838,18.32,21.5,18.325,21.159,18.325Z"/><path class="cls-3" d="M29.764,9.749l-2.253-.008-1.689-.008a7.889,7.889,0,0,1,1.327-.507A15.459,15.459,0,0,1,30.434,8.6a13.135,13.135,0,0,1,2.089-.027,16.27,16.27,0,0,1,3.227.515.423.423,0,0,1,.072.019c.04.019.089.047.079.094-.014.065-.076.051-.124.042-.316-.059-.634-.089-.953-.119a12.3,12.3,0,0,0-4.054.328A5.8,5.8,0,0,0,29.764,9.749Z"/><path class="cls-3" d="M14,15.919l-.156.392c-.405.034-.81.071-1.215.1-.072.005-.2.061-.211-.043-.018-.123.119-.095.2-.111C13.078,16.155,13.541,16.047,14,15.919Z"/><path class="cls-1" d="M33.8,12.761c0-.35,0-.7,0-1.05,0-.137.047-.188.184-.194a2.832,2.832,0,0,1,1.263.115,1.172,1.172,0,0,1,.718,1.341,1.132,1.132,0,0,1-1.018,1.018,5.024,5.024,0,0,1-1,.021c-.111,0-.152-.053-.15-.164C33.8,13.486,33.8,13.123,33.8,12.761Z"/><path class="cls-1" d="M18.5,14.1a3.171,3.171,0,0,1-.748.412c-.334.165-.678.31-1.017.465a.368.368,0,0,1-.181.037,4.34,4.34,0,0,1,.31-.889c.24-.694.5-1.381.753-2.071.016-.045.01-.111.08-.107s.067.064.084.11Q18.143,13.077,18.5,14.1Z"/></g></g></svg>