<svg xmlns="http://www.w3.org/2000/svg" viewBox="0 0 43 27"><defs><style>.cls-1{fill:#006fcf;}.cls-2{fill:#fff;}</style></defs><title>vendor_amex</title><g id="Layer_2" data-name="Layer 2"><g id="Layer_1-2" data-name="Layer 1"><rect class="cls-1" width="43" height="27" rx="4.406"/><path class="cls-2" d="M37.733,11.686h3.256V4H37.445V5.07L36.775,4H33.71V5.362L33.136,4h-5.65c-.192,0-.384.1-.575.1s-.287.1-.479.195-.287.1-.479.194V4H9.768L9.29,5.265,8.811,4H4.98V5.362L4.405,4H1.341L0,7.308v4.378H2.2l.383-1.07h.766l.383,1.07H20.59v-.972l.671.972h4.692V11.1c.1.1.288.1.383.194s.288.1.383.2a1.2,1.2,0,0,0,.575.1h3.448l.383-1.07h.766l.383,1.07h4.693v-.973ZM43,21.416v-7.2H16.664l-.671.973-.67-.973H7.661V21.9h7.662l.67-.973.671.973h4.788V20.249h-.191a4.579,4.579,0,0,0,1.723-.292V22h3.448v-.973L27.1,22h14.27A8.078,8.078,0,0,0,43,21.416Z"/><path class="cls-1" d="M41.372,19.568H38.786v1.07h2.49A1.6,1.6,0,0,0,43,18.984a1.35,1.35,0,0,0-1.532-1.46h-1.15a.487.487,0,0,1,0-.973h2.2L43,15.481H40.414a1.577,1.577,0,0,0-1.724,1.557A1.349,1.349,0,0,0,40.223,18.5h1.149a.457.457,0,0,1,.479.487C41.947,19.373,41.755,19.568,41.372,19.568Zm-4.693,0H34.094v1.07h2.49a1.6,1.6,0,0,0,1.723-1.654,1.349,1.349,0,0,0-1.532-1.46H35.626a.487.487,0,0,1,0-.973h2.2l.478-1.07H35.722A1.577,1.577,0,0,0,34,17.038,1.349,1.349,0,0,0,35.53,18.5h1.149a.456.456,0,0,1,.479.487A.451.451,0,0,1,36.679,19.568Zm-3.352-3.114v-1.07H29.305v5.157h4.022V19.47H30.454V18.4h2.778V17.33H30.454v-.973h2.873Zm-6.512,0a.59.59,0,1,1,0,1.168H25.379V16.357Zm-1.436,2.238h.574l1.533,1.849h1.436L27.2,18.6a1.554,1.554,0,0,0,1.341-1.557,1.6,1.6,0,0,0-1.724-1.654H24.134v5.157h1.149Zm-3.065-1.557a.61.61,0,0,1-.67.681H20.111V16.454h1.437A.687.687,0,0,1,22.314,17.135Zm-3.352-1.751v5.157h1.149V18.789h1.533a1.7,1.7,0,0,0,1.819-1.751,1.673,1.673,0,0,0-1.724-1.752Zm-1.724,5.157h1.437l-2.011-2.627,2.011-2.53H17.238l-1.245,1.654-1.245-1.654H13.312l2.011,2.53-2.011,2.529h1.436l1.245-1.654Zm-4.309-4.087v-1.07H8.906v5.157h4.023V19.47H10.056V18.4h2.777V17.33H10.056v-.973h2.873ZM36.2,7.308l2.012,3.114h1.436V5.265H38.5V8.67l-.287-.486-1.82-2.919H34.86v5.157h1.149v-3.5Zm-4.98-.1.384-1.07.383,1.07.478,1.167H30.742Zm2.012,3.211h1.245l-2.2-5.157H30.742l-2.2,5.157h1.245l.479-1.071h2.49Zm-5.363,0,.478-1.071H28.06a1.3,1.3,0,0,1-1.341-1.459V7.8a1.3,1.3,0,0,1,1.341-1.46h1.245V5.265H27.964A2.308,2.308,0,0,0,25.57,7.8v.1A2.239,2.239,0,0,0,27.869,10.422Zm-4.31,0h1.149V5.362H23.559Zm-2.49-4.087a.59.59,0,1,1,0,1.168H19.633V6.238ZM19.633,8.573h.574l1.532,1.849h1.437L21.452,8.476a1.554,1.554,0,0,0,1.341-1.557,1.6,1.6,0,0,0-1.724-1.654H18.388v5.157h1.149ZM17.526,6.335V5.265H13.5v5.157h4.023V9.351H14.653V8.281H17.43V7.211H14.653V6.238h2.873ZM8.811,10.422H9.864L11.3,6.238v4.184H12.45V5.265H10.535l-1.15,3.5-1.149-3.5H6.321v5.157H7.47V6.238ZM2.586,7.211l.383-1.07.383,1.07.479,1.167H2.107ZM4.6,10.422H5.842l-2.2-5.157H2.2L0,10.422H1.245l.479-1.071h2.49Z"/></g></g></svg>