<svg xmlns="http://www.w3.org/2000/svg" viewBox="0 0 43 27"><defs><style>.cls-1{fill:#e6e6e6;}.cls-2{fill:#252525;}.cls-3{fill:#136bb5;}.cls-4{fill:#f8a81b;}</style></defs><title>vendor_easypay</title><g id="Layer_2" data-name="Layer 2"><g id="Layer_1-2" data-name="Layer 1"><path class="cls-1" d="M0,22.988V4.013a1.445,1.445,0,0,0,.093-.431A4.521,4.521,0,0,1,4.561,0H38.372a5.857,5.857,0,0,1,.621.032,4.489,4.489,0,0,1,4,4.38q.017,9.075,0,18.15A4.481,4.481,0,0,1,39.446,26.9a1.973,1.973,0,0,0-.485.105H4.036c-.021-.043-.063-.033-.1-.038A4.518,4.518,0,0,1,.1,23.436,1.67,1.67,0,0,0,0,22.988Z"/><path class="cls-2" d="M2.722,14.613a2.607,2.607,0,0,0,.132,1.139,1.248,1.248,0,0,0,1.234.789A2.489,2.489,0,0,0,5.543,16.1l.132.789a3.407,3.407,0,0,1-1.807.482c-1.455,0-2.072-1.1-2.072-2.411,0-1.84,1.234-3.856,3-3.856a1.5,1.5,0,0,1,1.631,1.534C6.336,14.218,4.749,14.657,2.722,14.613Zm1.9-2.717c-.882,0-1.543.964-1.807,1.928,1.454,0,2.645-.219,2.645-1.139A.751.751,0,0,0,4.617,11.9Zm6.392,2.585a13.667,13.667,0,0,0-.221,2.805H9.907a13.191,13.191,0,0,1,.132-1.578H9.995c-.617,1.228-1.367,1.71-2.116,1.71-.97,0-1.587-.833-1.587-2.016,0-2.1,1.411-4.295,3.791-4.295a4.635,4.635,0,0,1,1.455.219ZM9.863,11.9c-1.411,0-2.557,1.621-2.6,3.287,0,.657.22,1.314.926,1.314.793,0,1.719-1.139,1.983-2.717l.309-1.84C10.392,11.94,10.171,11.9,9.863,11.9Zm5.157.263a1.7,1.7,0,0,0-.97-.263.912.912,0,0,0-.969.92c0,.438.264.7.749,1.008A1.893,1.893,0,0,1,14.844,15.4a1.928,1.928,0,0,1-2.116,1.972,2.655,2.655,0,0,1-1.367-.395l.265-.745a2.384,2.384,0,0,0,1.19.395,1,1,0,0,0,1.058-.964c0-.482-.176-.745-.749-1.1a1.833,1.833,0,0,1-.97-1.534,1.9,1.9,0,0,1,1.984-1.884,1.983,1.983,0,0,1,1.146.307ZM18.238,15.8a10.715,10.715,0,0,1-1.895,3.155A3.41,3.41,0,0,1,14.756,20l-.221-.876a4.208,4.208,0,0,0,1.014-.57,4.671,4.671,0,0,0,1.058-1.4.556.556,0,0,0,.044-.263l-1.1-5.654h.97l.529,3.243c.132.7.176,1.14.264,1.578h.045c.132-.394.308-.789.573-1.49L19.34,11.2h.926Z"/><path class="cls-3" d="M18.106,18.557s2.468-4.032,2.909-5.916.485-2.893-1.234-3.068a23.455,23.455,0,0,0-3.747,0A12.365,12.365,0,0,1,22.47,7.952a10.964,10.964,0,0,1,5.819,1.621,7.739,7.739,0,0,1-2.072.394c-1.279.132-1.763.395-1.675,1.841a6.635,6.635,0,0,0,.617,2.454s-2.072-1.358-3.35,0-1.543,1.972-2.293,2.849a10.558,10.558,0,0,1-1.41,1.446"/><path class="cls-4" d="M22.338,4.358a1.578,1.578,0,1,1-1.587,1.578,1.6,1.6,0,0,1,1.587-1.578"/><path class="cls-2" d="M27.716,17.374a2.38,2.38,0,0,1-1.191-.263h-.044L26.04,19.7h-.925l1.1-6.354c.132-.745.22-1.534.308-2.147h.838l-.176,1.139h.044a2.429,2.429,0,0,1,1.939-1.271c1.19,0,1.675,1.052,1.675,2.191C30.889,15.4,29.523,17.374,27.716,17.374Zm1.146-5.434c-.75,0-1.675.92-1.94,2.629l-.264,1.665a1.532,1.532,0,0,0,1.058.351c1.19,0,2.2-1.665,2.2-3.243C29.92,12.685,29.655,11.94,28.862,11.94Zm6.832,2.541a13.657,13.657,0,0,0-.22,2.805h-.882a13.191,13.191,0,0,1,.132-1.578H34.68c-.617,1.228-1.322,1.71-2.116,1.71-.969,0-1.586-.833-1.586-2.016,0-2.1,1.41-4.295,3.79-4.295a4.63,4.63,0,0,1,1.455.219ZM34.548,11.9c-1.411,0-2.557,1.621-2.557,3.287,0,.657.221,1.314.926,1.314.794,0,1.719-1.139,1.984-2.717l.308-1.84C35.077,11.94,34.857,11.9,34.548,11.9Zm4.673,3.9a10.7,10.7,0,0,1-1.9,3.155A3.406,3.406,0,0,1,35.738,20l-.22-.876a4.227,4.227,0,0,0,1.014-.57,4.7,4.7,0,0,0,1.058-1.4.556.556,0,0,0,.044-.263l-1.1-5.654H37.5l.529,3.243c.133.7.177,1.14.265,1.578h.044c.132-.394.309-.789.573-1.49L40.279,11.2h.969Z"/></g></g></svg>