<svg xmlns="http://www.w3.org/2000/svg" viewBox="0 0 43 27"><defs><style>.cls-1{fill:#e6e6e6;}.cls-2{fill:#ea221b;}.cls-3{fill:#f69e1b;}.cls-4{fill:#fe5f00;}.cls-5{fill:#242021;}</style></defs><title>vendor_mastercard</title><g id="Layer_2" data-name="Layer 2"><g id="Layer_1-2" data-name="Layer 1"><rect class="cls-1" width="43" height="27" rx="4.406"/><path class="cls-2" d="M21.493,17.627a7.642,7.642,0,0,1-4.168,1.634,7.749,7.749,0,0,1-6.614-2.614A7.432,7.432,0,0,1,8.776,12.3,7.851,7.851,0,0,1,15.62,3.665a7.8,7.8,0,0,1,5.8,1.543c.024.019.044.042.067.064-.141.122-.285.24-.422.367a8.067,8.067,0,0,0-1.847,2.52,7.756,7.756,0,0,0-.631,4.5,7.536,7.536,0,0,0,.924,2.648,7.946,7.946,0,0,0,1.979,2.3A.036.036,0,0,0,21.493,17.627Z"/><path class="cls-3" d="M21.493,17.627a.042.042,0,0,1,0-.025.529.529,0,0,0,.1-.052,7.782,7.782,0,0,0,2.343-3.124,7.688,7.688,0,0,0,.572-3.445,8.089,8.089,0,0,0-.33-1.849,7.913,7.913,0,0,0-2.657-3.857,7.446,7.446,0,0,1,3.349-1.529,7.743,7.743,0,0,1,6.713,1.788,7.438,7.438,0,0,1,2.642,4.95,7.619,7.619,0,0,1-2.679,6.908,7.515,7.515,0,0,1-4.369,1.861,7.851,7.851,0,0,1-5.583-1.569C21.559,17.662,21.525,17.646,21.493,17.627Z"/><path class="cls-4" d="M21.516,5.275a7.913,7.913,0,0,1,2.657,3.857,8.089,8.089,0,0,1,.33,1.849,7.688,7.688,0,0,1-.572,3.445,7.782,7.782,0,0,1-2.343,3.124.529.529,0,0,1-.1.052,7.958,7.958,0,0,1-1.978-2.3,7.536,7.536,0,0,1-.924-2.648,7.756,7.756,0,0,1,.631-4.5,8.067,8.067,0,0,1,1.847-2.52c.137-.127.281-.245.422-.367A.124.124,0,0,1,21.516,5.275Z"/><path class="cls-5" d="M10.456,21.4c.542-.4.96-.368,1.329.085a.844.844,0,0,1,.75-.366.77.77,0,0,1,.8.784c.009.405,0,.811,0,1.216,0,.117-.047.128-.144.129-.312,0-.312,0-.312-.3s0-.611,0-.916a.442.442,0,0,0-.437-.5.48.48,0,0,0-.537.474c-.015.362-.013.724,0,1.085,0,.127-.036.17-.158.153a.389.389,0,0,0-.113,0c-.142.021-.2-.024-.188-.18.014-.336.006-.673,0-1.01s-.169-.52-.456-.522a.481.481,0,0,0-.52.512c-.009.349-.01.7,0,1.047,0,.129-.037.168-.158.153a.579.579,0,0,0-.15,0c-.116.016-.148-.028-.147-.144q.009-.888,0-1.777c0-.116.02-.181.152-.158a.218.218,0,0,0,.057,0C10.384,21.156,10.536,21.146,10.456,21.4Z"/><path class="cls-5" d="M32.6,21.4c0-.31.007-.606,0-.9,0-.13.029-.185.164-.164a.411.411,0,0,0,.131,0c.128-.02.156.036.155.156-.006.592,0,1.183,0,1.775,0,.281-.007.561,0,.842,0,.117-.031.161-.146.144a.27.27,0,0,0-.075,0c-.162.024-.276,0-.211-.26a.924.924,0,0,1-.9.289.992.992,0,0,1-.605-.38,1.181,1.181,0,0,1,.076-1.464A1.011,1.011,0,0,1,32.6,21.4Zm-.61,1.485a.673.673,0,1,0-.646-.672A.631.631,0,0,0,31.988,22.88Z"/><path class="cls-5" d="M15.455,21.4c.037-.08-.046-.2.064-.218a1.466,1.466,0,0,1,.374,0c.01,0,.021.066.021.1,0,.618,0,1.235,0,1.852,0,.1-.038.12-.122.112a.422.422,0,0,0-.094,0c-.162.018-.291,0-.234-.225a1,1,0,0,1-1.45-.079,1.119,1.119,0,0,1-.055-1.385A.965.965,0,0,1,15.455,21.4Zm.04.806a.64.64,0,1,0-.637.679A.632.632,0,0,0,15.5,22.2Z"/><path class="cls-5" d="M28.346,21.4c.045-.077-.022-.2.048-.215a1.168,1.168,0,0,1,.355-.009c.064,0,.049.062.049.1,0,.623,0,1.246,0,1.869,0,.083-.028.114-.108.105a.643.643,0,0,0-.076,0c-.146,0-.342.058-.237-.236a1.021,1.021,0,0,1-1.492-.087,1.115,1.115,0,0,1-.031-1.37A.962.962,0,0,1,28.346,21.4Zm.034.815a.627.627,0,0,0-.64-.675.642.642,0,0,0-.639.682.633.633,0,0,0,.636.663A.623.623,0,0,0,28.38,22.21Z"/><path class="cls-5" d="M21.805,22.372c-.213,0-.427.006-.64,0-.149-.006-.151.05-.1.165a.627.627,0,0,0,.729.355,1.218,1.218,0,0,0,.335-.114c.048-.023.093-.12.152-.056A1.487,1.487,0,0,1,22.46,23c.006.01-.029.052-.052.068A1.152,1.152,0,0,1,20.59,22.5a1.054,1.054,0,0,1,1.249-1.351,1.038,1.038,0,0,1,.743,1.149c-.006.092-.066.073-.119.073C22.244,22.373,22.024,22.372,21.805,22.372Zm-.231-.338c.144,0,.288,0,.432,0,.11,0,.127-.035.095-.134a.527.527,0,0,0-.493-.391.539.539,0,0,0-.548.37c-.043.11-.036.162.1.155S21.436,22.034,21.574,22.034Z"/><path class="cls-5" d="M17.3,23.3a1.7,1.7,0,0,1-.8-.186c-.094-.05-.14-.1-.056-.2a.339.339,0,0,0,.059-.094c.044-.107.092-.128.2-.06a1.1,1.1,0,0,0,.8.12c.13-.026.253-.078.256-.229s-.132-.185-.248-.21c-.171-.037-.347-.05-.518-.089a.587.587,0,0,1-.535-.578A.621.621,0,0,1,17,21.157a1.682,1.682,0,0,1,1.012.095c.115.047.188.1.081.22a.053.053,0,0,0-.008.017c-.054.168-.137.2-.309.117a.874.874,0,0,0-.64-.071c-.114.034-.216.087-.216.223s.111.169.218.19c.19.038.384.059.571.106.336.084.5.263.507.541a.613.613,0,0,1-.464.626,1.361,1.361,0,0,1-.236.06C17.433,23.294,17.344,23.3,17.3,23.3Z"/><path class="cls-5" d="M18.968,22.122c0-.057,0-.113,0-.169,0-.118.037-.262-.018-.347s-.208-.028-.318-.03c-.08,0-.094-.036-.089-.1a.857.857,0,0,0,0-.168c-.011-.1.021-.153.134-.138.049.007.1,0,.15,0,.121.018.155-.036.144-.148-.009-.08.007-.163,0-.242-.027-.188.033-.256.237-.248.171.008.222.048.217.222-.013.414,0,.415.414.415a.714.714,0,0,0,.131,0c.169-.03.205.04.208.2s-.052.224-.218.207c-.137-.014-.276,0-.414,0-.1-.005-.13.027-.127.127.006.249,0,.5,0,.748,0,.391.179.515.553.391.071-.023.17-.135.2.046.02.122.174.263-.067.34a1.285,1.285,0,0,1-.573.065.581.581,0,0,1-.542-.55A5.282,5.282,0,0,1,18.968,22.122Z"/><path class="cls-5" d="M25.653,23.3a1.1,1.1,0,1,1,.208-2.166,1.284,1.284,0,0,1,.422.15c.1.055.122.111.047.2a.362.362,0,0,0-.058.1c-.047.112-.106.139-.22.067a.722.722,0,0,0-.6-.086.668.668,0,0,0-.433.84.638.638,0,0,0,.781.47,1,1,0,0,0,.161-.05c.254-.1.248-.1.386.148.042.075.026.107-.037.148A1.133,1.133,0,0,1,25.653,23.3Z"/><path class="cls-5" d="M29.854,21.4a.729.729,0,0,1,.755-.255c.095.021.138.045.088.144a.4.4,0,0,0-.034.106c-.025.147-.086.19-.251.157-.323-.064-.534.122-.548.471s-.014.7,0,1.046c0,.145-.032.192-.183.185-.254-.013-.255,0-.255-.258,0-.554,0-1.109,0-1.663,0-.129.029-.185.163-.161a.175.175,0,0,0,.056,0C29.786,21.157,29.922,21.157,29.854,21.4Z"/><path class="cls-5" d="M23.524,21.389a.706.706,0,0,1,.744-.246c.1.021.134.048.083.143a.341.341,0,0,0-.036.106c-.024.149-.085.191-.251.157a.43.43,0,0,0-.545.452c-.008.331,0,.661,0,.992,0,.254,0,.258-.264.25-.07,0-.187.062-.186-.1q.006-.936,0-1.871c0-.086.033-.111.111-.1a.534.534,0,0,0,.113,0C23.448,21.149,23.567,21.17,23.524,21.389Z"/><path class="cls-1" d="M31.988,22.88a.673.673,0,0,1,0-1.345.673.673,0,0,1,0,1.345Z"/><path class="cls-1" d="M15.5,22.2a.64.64,0,1,1-1.279.024A.641.641,0,1,1,15.5,22.2Z"/><path class="cls-1" d="M28.38,22.21a.623.623,0,0,1-.643.67.633.633,0,0,1-.636-.663.642.642,0,0,1,.639-.682A.627.627,0,0,1,28.38,22.21Z"/><path class="cls-1" d="M21.574,22.034c-.138,0-.277-.006-.414,0s-.143-.045-.1-.155a.539.539,0,0,1,.548-.37.527.527,0,0,1,.493.391c.032.1.015.138-.095.134C21.862,22.03,21.718,22.034,21.574,22.034Z"/></g></g></svg>