<svg xmlns="http://www.w3.org/2000/svg" viewBox="0 0 43 27"><defs><style>.cls-1{fill:#cc1d20;}.cls-2{fill:#fff;fill-rule:evenodd;}</style></defs><title>vendor_dankort</title><g id="Layer_2" data-name="Layer 2"><g id="Layer_1-2" data-name="Layer 1"><rect class="cls-1" width="43" height="27" rx="4.406"/><path id="Dankort-Logo" class="cls-2" d="M38.024,4.5A3.723,3.723,0,0,1,40,7.862l-8.509.063c-.171.045-.261.265-.432.373-1.184,1.495-2.37,2.991-3.576,4.423.126-1.582.2-3.212.431-4.8H20.82c-.037,1.408-.117,2.808-.185,4.173A4.994,4.994,0,0,0,17.49,8.423a6.059,6.059,0,0,0-2.219-.5L3.062,7.987A3.665,3.665,0,0,1,4.85,4.623,4.2,4.2,0,0,1,6.515,4H33.769C35.187,4.128,36.86,3.722,38.024,4.5ZM40,18.826c0,.042-.021.042,0,.063a76.34,76.34,0,0,1-4.748-5.981v-.062a64.643,64.643,0,0,1,4.686-4.8H40ZM9.783,14.777l.246-2.866s3.7-.424,4.132,1.246C14.161,15.128,9.783,14.777,9.783,14.777Zm22.26,4.236H40a3.879,3.879,0,0,1-2.22,3.613,4.393,4.393,0,0,1-1.788.312H22.67L6.453,23a4.048,4.048,0,0,1-3.206-2.43A5.1,5.1,0,0,1,3,19.075l11.962-.062a6.021,6.021,0,0,0,4.563-2.679A9.694,9.694,0,0,0,20.45,14.4c-.1,1.519-.161,3.106-.308,4.672,2.244-.022,6.991,0,6.968,0,.065-1.93.171-3.947.308-5.855l3.7,5.419C31.254,19.118,31.651,19.011,32.043,19.013Z"/></g></g></svg>