<svg xmlns="http://www.w3.org/2000/svg" viewBox="0 0 43 27"><defs><style>.cls-1{fill:#fff;}.cls-2{fill:#0078bd;}</style></defs><title>vendor_diners</title><g id="Layer_2" data-name="Layer 2"><g id="Layer_1-2" data-name="Layer 1"><rect class="cls-1" x="6.729" y="2.904" width="31.054" height="20.86"/><path class="cls-2" d="M0,22.988V4.013a1.445,1.445,0,0,0,.093-.431A4.521,4.521,0,0,1,4.561,0H38.372a5.857,5.857,0,0,1,.621.032,4.489,4.489,0,0,1,4,4.38q.017,9.075,0,18.15A4.481,4.481,0,0,1,39.446,26.9a1.973,1.973,0,0,0-.485.105H4.036c-.021-.043-.063-.033-.1-.038A4.518,4.518,0,0,1,.1,23.436,1.67,1.67,0,0,0,0,22.988Zm22.215-.038c.817,0,1.634,0,2.451,0a8.661,8.661,0,0,0,2.03-.245,10.218,10.218,0,0,0,4.983-2.78A8.933,8.933,0,0,0,34,10.8a9.823,9.823,0,0,0-9.163-6.743c-1.6-.043-3.193,0-4.79-.01a10.041,10.041,0,0,0-2.221.226,9.235,9.235,0,0,0-7.383,8.4A9.5,9.5,0,0,0,19.877,22.95Q21.045,22.952,22.215,22.95Z"/><path class="cls-2" d="M11.318,13.478a8.7,8.7,0,1,1,8.61,8.645A8.68,8.68,0,0,1,11.318,13.478Zm6.73.022V8.569c0-.213,0-.213-.2-.13a5.451,5.451,0,0,0-3.292,5.791,5.387,5.387,0,0,0,3.26,4.281c.226.106.229.1.229-.155ZM22,8.387v10.2a5.472,5.472,0,0,0,3.525-5.449C25.409,11.04,23.709,8.749,22,8.387Z"/></g></g></svg>