<svg xmlns="http://www.w3.org/2000/svg" viewBox="0 0 43 27"><defs><style>.cls-1{fill:#b3131b;}.cls-2{fill:#fff;}</style></defs><title>vendor_hipercard</title><g id="Layer_2" data-name="Layer 2"><g id="Layer_1-2" data-name="Layer 1"><path class="cls-1" d="M0,22.988V4.013a1.445,1.445,0,0,0,.093-.431A4.521,4.521,0,0,1,4.561,0H38.372a5.857,5.857,0,0,1,.621.032,4.489,4.489,0,0,1,4,4.38q.017,9.075,0,18.15A4.481,4.481,0,0,1,39.446,26.9a1.973,1.973,0,0,0-.485.105H4.036c-.021-.043-.063-.033-.1-.038A4.518,4.518,0,0,1,.1,23.436,1.67,1.67,0,0,0,0,22.988Z"/><path id="path2997" class="cls-2" d="M10.318,18.949h.536l.015-.039a.412.412,0,0,0,.015-.113c0-.04.018-.187.039-.326s.072-.459.113-.711.1-.631.134-.842.074-.481.091-.6a.859.859,0,0,1,.044-.217.425.425,0,0,1,.077.117l.062.117.139.138.138.139.17.067.17.068.2.026.2.026.257-.015.257-.016.279-.072.278-.071.15-.068a3.13,3.13,0,0,0,.323-.181l.175-.113.162-.161a3.724,3.724,0,0,0,.281-.317,1.392,1.392,0,0,0,.117-.169.7.7,0,0,1,.071-.117,2.8,2.8,0,0,0,.177-.352c.058-.136.149-.381.2-.544l.1-.3.05-.257c.027-.142.063-.376.078-.52l.029-.263-.017-.223-.016-.223-.052-.223-.052-.222-.084-.167-.084-.167-.163-.172-.163-.171-.192-.1-.192-.1-.212-.051-.212-.05-.211-.016-.212-.015-.236.027-.236.027-.192.049-.193.049-.167.076c-.092.043-.226.115-.3.16a1.571,1.571,0,0,0-.164.117.829.829,0,0,1-.1.076l-.066.042.046-.217c.025-.12.046-.232.047-.249v-.031h-.914l-.08.5c-.044.276-.113.7-.154.947s-.1.613-.137.818-.1.566-.137.8-.108.618-.15.843-.1.553-.135.73l-.138.743c-.042.232-.111.6-.152.817s-.108.564-.149.768-.08.4-.088.427l-.014.056Zm2.306-2.863-.208.012-.136-.024-.136-.024-.138-.062-.138-.063-.1-.092-.1-.091-.056-.124a1.766,1.766,0,0,1-.087-.257l-.032-.133.013-.214.013-.213.064-.335c.035-.184.1-.529.141-.767s.106-.588.142-.777l.065-.342.143-.118a2.263,2.263,0,0,1,.276-.194l.134-.075.174-.054.175-.054.224-.013.224-.013.183.039.182.038.129.059.129.059.108.108.108.108.058.115a1.686,1.686,0,0,1,.1.273l.042.16-.013.47-.013.471-.064.278c-.035.153-.1.387-.148.52L14,15l-.1.2a3.587,3.587,0,0,1-.2.323,1.426,1.426,0,0,1-.179.2c-.048.041-.129.1-.179.142l-.091.068L13.043,16l-.211.071-.208.013Zm5.173.681.274,0,.274-.025c.151-.014.4-.042.548-.063s.411-.069.579-.1l.3-.067.015-.112c.009-.061.043-.244.076-.406l.061-.294-.013-.014-.014-.013-.093.045c-.051.024-.21.083-.354.13l-.261.086-.275.053-.274.052h-.872l-.149-.047a2.284,2.284,0,0,1-.269-.107l-.119-.058-.1-.089-.1-.088-.077-.133-.077-.134-.048-.167-.048-.167v-.62l.043-.276.043-.276.375-.018.375-.017,1.385.009,1.386.009.042-.177c.023-.1.058-.3.078-.446l.036-.269v-.453l-.039-.169-.04-.169-.065-.112a1.528,1.528,0,0,0-.141-.2,1.15,1.15,0,0,0-.164-.149c-.049-.034-.145-.092-.213-.128l-.125-.066-.218-.052-.217-.052-.268-.026-.269-.025-.249.016L18.3,11.4l-.3.057-.3.057-.186.075a3.308,3.308,0,0,0-.349.165,2.324,2.324,0,0,0-.274.182c-.062.049-.169.146-.238.214a2.391,2.391,0,0,0-.226.273,3.684,3.684,0,0,0-.189.322c-.049.1-.112.229-.141.3s-.081.208-.116.31-.09.3-.123.433-.077.361-.1.5l-.04.25v.737l.037.161a2.91,2.91,0,0,0,.089.3,2.035,2.035,0,0,0,.114.248,1.354,1.354,0,0,0,.167.219,2.088,2.088,0,0,0,.227.2,1.863,1.863,0,0,0,.271.158l.147.066.2.049c.112.027.282.059.377.071s.3.024.446.026Zm.469-3.489c-.689,0-1.254-.005-1.254-.011s.03-.093.066-.192.1-.248.14-.33l.075-.148.165-.163.165-.163.162-.077a1.889,1.889,0,0,1,.261-.1,2.71,2.71,0,0,1,.349-.042l.249-.015.191.024.192.025.139.063.139.063.076.082a.871.871,0,0,1,.111.147l.035.065.023.145.023.146-.026.241-.027.242Zm7.453,3.489.274,0,.312-.037c.171-.02.4-.054.506-.074s.281-.062.386-.092a1.393,1.393,0,0,0,.211-.07,1.191,1.191,0,0,0,.066-.25c.025-.128.057-.3.071-.381a.687.687,0,0,0,.015-.159c0-.005-.023,0-.041.016a2.182,2.182,0,0,1-.271.113l-.24.089-.342.066-.341.066-.291-.01-.29-.01-.165-.057-.165-.057-.128-.111-.127-.111-.085-.153L24.99,15.4l-.04-.205-.041-.205v-.531l.049-.322.049-.322.051-.173c.029-.1.061-.207.072-.248a2.68,2.68,0,0,1,.1-.26c.045-.1.125-.26.178-.351l.1-.165.119-.122.118-.122.125-.077L26,12.214l.161-.049a3.074,3.074,0,0,1,.348-.078l.187-.029.274.013.274.014.324.065.323.064.132.049c.073.027.135.049.139.049a1.644,1.644,0,0,0,.039-.205c.017-.112.048-.3.068-.411a.975.975,0,0,0,.026-.217,1.422,1.422,0,0,0-.216-.034c-.113-.013-.42-.036-.682-.051l-.477-.027-.336.026-.337.025-.249.052-.249.053-.16.063a2.341,2.341,0,0,0-.288.141c-.069.042-.158.1-.2.126s-.156.134-.261.237l-.191.186-.106.155a4.126,4.126,0,0,0-.226.4l-.118.24-.091.26c-.05.143-.12.377-.156.52l-.064.26-.023.236-.023.235V15.2l.024.18.023.18.075.185.074.186.087.134.086.134.137.134.137.134.145.076.145.076.19.053a3.159,3.159,0,0,0,.337.073,4.093,4.093,0,0,0,.42.025Zm4.1-.009.336-.01.212-.054.212-.054.137-.064a2.84,2.84,0,0,0,.274-.156,2.134,2.134,0,0,0,.259-.211,2.719,2.719,0,0,0,.221-.251.717.717,0,0,1,.107-.124,1.969,1.969,0,0,1-.028.255,4.023,4.023,0,0,0-.036.4v.155h.914l.014-.353.014-.353.066-.458c.035-.252.093-.626.128-.83s.1-.55.135-.768.1-.558.139-.755l.067-.359,0-.31,0-.311-.07-.143-.071-.143-.1-.092-.1-.091L32.5,11.6l-.157-.079-.235-.052-.234-.052-.322-.024-.322-.024-.415.025c-.229.014-.55.042-.715.062l-.3.036H29.4l-.03.143c-.016.078-.061.264-.1.413a2.1,2.1,0,0,0-.063.279,1.6,1.6,0,0,0,.242-.054c.129-.035.4-.091.608-.126l.373-.063.337-.014.336-.014.217.038.216.038.145.07.144.071.081.12.081.12v.379l-.043.207-.043.208-.9,0-.9,0-.293.08a3.467,3.467,0,0,0-.4.13.638.638,0,0,1-.127.05,1.533,1.533,0,0,0-.213.117l-.19.118-.15.149a2.274,2.274,0,0,0-.234.272,2.39,2.39,0,0,0-.167.316l-.083.193-.038.216-.038.216v.454l.036.189.037.189.067.123a1.56,1.56,0,0,0,.151.221l.084.1.149.09.149.09.171.048c.094.026.236.058.317.071l.147.023.336-.01Zm.311-.693-.2.01-.132-.033a1.346,1.346,0,0,1-.245-.091l-.113-.058-.061-.073a1.117,1.117,0,0,1-.115-.174l-.053-.1-.011-.238-.01-.238.042-.145a2.418,2.418,0,0,1,.121-.306l.079-.162.151-.149.151-.149.16-.077L30.054,14l.2-.047.2-.047H31.7l.039.016.04.017-.034.194c-.018.107-.061.3-.1.429s-.1.32-.137.423a2.151,2.151,0,0,0-.074.2,1.4,1.4,0,0,1-.091.167l-.091.151-.149.148a1,1,0,0,1-.17.147.481.481,0,0,0-.112.062l-.091.062-.2.063-.2.064-.2.01Zm8.109.7.237,0,.224-.036c.123-.02.28-.052.349-.071a1.811,1.811,0,0,0,.274-.111l.149-.076.129-.113.128-.112.136-.18a2.141,2.141,0,0,0,.15-.217l.014-.037-.012.124c-.007.068-.023.18-.035.248s-.029.2-.038.291l-.017.167H40.9v-.335l.074-.631c.041-.347.1-.81.135-1.028s.084-.53.113-.693.081-.459.115-.657.1-.543.137-.767.108-.582.147-.793.1-.54.136-.731.1-.525.141-.743.1-.524.137-.681.06-.293.06-.3V9.265H41.032l-.016.155c-.008.085-.049.367-.09.625s-.109.672-.15.917-.08.483-.087.528l-.014.083-.042-.018c-.023-.01-.148-.044-.278-.077l-.237-.059-.324-.025-.324-.025-.274.025-.274.026-.249.062-.249.063-.237.115-.236.114-.175.129-.174.128-.151.161a3.673,3.673,0,0,0-.266.324l-.115.164-.135.28c-.075.154-.166.358-.2.454s-.1.307-.142.469l-.076.3-.038.385-.037.384.028.31.028.309.033.112c.019.061.057.17.086.243l.053.131.1.129.1.129.109.089.11.089.149.074a2.04,2.04,0,0,0,.307.117,2.9,2.9,0,0,0,.311.062c.085.011.261.022.391.023Zm.425-.7-.188.01-.127-.023a1.361,1.361,0,0,1-.248-.075l-.122-.051-.1-.083-.1-.084-.076-.144-.076-.145-.034-.161-.035-.161,0-.322,0-.321.04-.285.04-.285.063-.2a1.936,1.936,0,0,0,.062-.229,1.351,1.351,0,0,1,.076-.2c.041-.092.11-.235.153-.316a2.587,2.587,0,0,1,.178-.283,2.366,2.366,0,0,1,.219-.248,1.657,1.657,0,0,1,.229-.181l.112-.069.2-.067.2-.067h.823l.236.066c.13.036.269.077.307.092l.071.027-.014.068c-.008.038-.037.2-.066.366s-.085.475-.125.693-.1.547-.138.731-.086.418-.114.52-.065.243-.085.314a1.92,1.92,0,0,1-.251.528,1.4,1.4,0,0,1-.162.188,2.011,2.011,0,0,1-.22.168l-.137.091-.2.062-.2.063-.188.01ZM2,16.646H2.6l.044-.266c.023-.147.07-.428.1-.626l.137-.817c.043-.252.106-.625.141-.83s.091-.521.124-.7a3.265,3.265,0,0,1,.074-.347l.014-.014H6.5l.018.018.018.018-.028.143-.1.54c-.04.217-.109.585-.151.817s-.105.56-.138.73-.1.527-.148.793-.088.5-.088.514v.031H7.092l.027-.155c.015-.085.039-.238.053-.34s.049-.32.077-.483.083-.487.123-.719.107-.627.149-.879.105-.62.139-.817.095-.532.135-.743.107-.568.149-.793.1-.564.138-.755.1-.536.14-.768.1-.5.12-.6l.042-.179H7.153l-.017.118c-.009.064-.039.245-.066.4s-.076.435-.11.619-.093.535-.134.78-.093.57-.116.722l-.042.275-.9.018-.9.018-.756-.017c-.416-.01-.759-.02-.762-.023a1.869,1.869,0,0,1,.032-.213c.02-.116.058-.316.084-.445s.077-.386.112-.57.074-.412.087-.508.042-.254.063-.353.06-.306.088-.462.057-.3.065-.322l.015-.039H2.668l-.039.217c-.021.119-.05.289-.064.377s-.059.373-.1.632-.1.643-.137.854l-.137.855c-.042.259-.11.66-.152.891s-.1.561-.136.731-.094.494-.137.718-.106.543-.14.706-.071.353-.083.421-.05.265-.085.437-.064.33-.064.353v.04Zm6.7,0h.535l.016-.039a.479.479,0,0,0,.015-.126c0-.047.033-.3.075-.549s.109-.669.151-.921.1-.62.138-.817.093-.526.133-.731.1-.522.135-.706.1-.533.152-.777.1-.453.1-.465l.013-.022-.542.007-.542.007-.045.322c-.025.177-.079.528-.12.78s-.105.636-.14.854-.1.569-.136.78-.1.535-.136.719-.1.507-.139.718-.1.49-.124.619-.055.26-.063.291l-.015.056Zm12.532,0h.532l.016-.224c.009-.123.039-.371.067-.551s.085-.539.127-.8.121-.689.174-.957.114-.534.134-.591a.64.64,0,0,0,.037-.139,1.3,1.3,0,0,1,.089-.226,2.975,2.975,0,0,1,.2-.359l.113-.168.152-.14.152-.14.188-.089.187-.089.287,0h.286l.141.042c.077.023.148.042.156.042s.015-.026.015-.058.028-.2.062-.363.062-.311.062-.32a.688.688,0,0,0-.181-.07,2.36,2.36,0,0,0-.3-.07l-.124-.015-.162.028a2.2,2.2,0,0,0-.294.077,1.763,1.763,0,0,0-.268.134,1.94,1.94,0,0,0-.256.2,2.853,2.853,0,0,0-.249.292c-.071.095-.145.2-.164.223l-.036.05.022-.1c.012-.054.045-.232.073-.4s.059-.316.066-.34l.013-.044H21.6v.06c0,.033-.028.231-.062.44s-.091.558-.126.776-.1.6-.137.842-.1.6-.137.78-.1.507-.138.718-.108.557-.15.768-.092.461-.112.554-.035.18-.035.192v.022Zm12.626,0H34.4v-.331l.062-.41c.035-.226.092-.584.127-.795s.078-.478.1-.594.067-.367.108-.557.092-.4.114-.459a.792.792,0,0,0,.039-.142,1.793,1.793,0,0,1,.1-.248l.1-.216.136-.178.135-.179.148-.111a2.236,2.236,0,0,1,.291-.18l.144-.069.311,0,.311,0,.123.039.122.039.021-.013.021-.013v-.079a3.071,3.071,0,0,1,.059-.359l.058-.28-.065-.026c-.036-.014-.122-.043-.19-.064l-.125-.039h-.448l-.183.064-.183.064L35.7,11.6l-.137.082-.178.186-.179.186-.1.144a.679.679,0,0,1-.1.136s.025-.17.064-.367.071-.384.072-.415v-.056h-.922v.016c0,.009-.023.168-.051.353s-.084.543-.125.8-.108.659-.149.9-.1.6-.137.781-.1.507-.137.718-.107.551-.148.755-.095.475-.12.6l-.046.229ZM9.752,10.6H9.9l.12-.041.12-.041.106-.107.107-.107.056-.143.056-.143,0-.211,0-.21-.05-.083-.05-.082-.086-.053L10.2,9.328H9.825L9.7,9.385l-.128.057L9.5,9.521,9.422,9.6l-.058.136-.058.136-.011.212-.011.212.054.106.054.105.105.048.1.047Z"/></g></g></svg>