<svg xmlns="http://www.w3.org/2000/svg" xmlns:xlink="http://www.w3.org/1999/xlink" viewBox="0 0 43 27"><defs><style>.cls-1{fill:#e6e6e6;}.cls-2{fill:url(#linear-gradient);}.cls-3{fill:url(#linear-gradient-2);}.cls-4{fill:#fdfdfd;}.cls-5{fill:url(#linear-gradient-3);}.cls-6{fill:url(#linear-gradient-4);}.cls-7{fill:url(#linear-gradient-5);}</style><linearGradient id="linear-gradient" x1="17.448" y1="13.526" x2="25.642" y2="13.526" gradientUnits="userSpaceOnUse"><stop offset="0" stop-color="#5e1e23"/><stop offset="1" stop-color="#dc002c"/></linearGradient><linearGradient id="linear-gradient-2" x1="26.606" y1="13.518" x2="34.803" y2="13.518" gradientUnits="userSpaceOnUse"><stop offset="0" stop-color="#0e6931"/><stop offset="1" stop-color="#4aa926"/></linearGradient><linearGradient id="linear-gradient-3" x1="8.252" y1="13.509" x2="16.437" y2="13.509" gradientUnits="userSpaceOnUse"><stop offset="0" stop-color="#161b5e"/><stop offset="1" stop-color="#0a57ab"/></linearGradient><linearGradient id="linear-gradient-4" x1="28.252" y1="14.779" x2="31.086" y2="14.779" xlink:href="#linear-gradient-2"/><linearGradient id="linear-gradient-5" x1="28.252" y1="12.13" x2="30.847" y2="12.13" xlink:href="#linear-gradient-2"/></defs><title>vendor_japancredit</title><g id="Layer_2" data-name="Layer 2"><g id="Layer_1-2" data-name="Layer 1"><rect class="cls-1" width="43" height="27" rx="4.406"/><path class="cls-2" d="M17.452,11.216q0-2.137,0-4.275a3.307,3.307,0,0,1,2.893-3.294,4.42,4.42,0,0,1,.564-.027c1.508,0,3.015,0,4.522-.008.163,0,.209.035.208.2-.005,5.412-.016,10.825,0,16.237a3.344,3.344,0,0,1-2.527,3.286,3.4,3.4,0,0,1-.8.1q-2.336,0-4.673,0c-.157,0-.2-.041-.194-.2q.006-3.7,0-7.406a.287.287,0,0,1,.067.028,4.533,4.533,0,0,0,2.054.857,11.316,11.316,0,0,0,3.461.062,13.328,13.328,0,0,0,1.56-.286c.074-.019.126-.035.126-.128,0-.424,0-.847,0-1.269-.026,0-.04-.009-.05,0l-.155.068a6,6,0,0,1-3.1.622,2.369,2.369,0,0,1-1.272-.457,2.2,2.2,0,0,1-.8-2.019,2.036,2.036,0,0,1,1.586-1.947,4.085,4.085,0,0,1,1.206-.092,5.929,5.929,0,0,1,2.006.447c.189.076.374.163.58.254,0-.417-.008-.809,0-1.2,0-.148-.041-.2-.186-.234a14.057,14.057,0,0,0-2.55-.357A7.008,7.008,0,0,0,17.452,11.216Z"/><path class="cls-3" d="M26.645,10.35c0-.594,0-1.187-.006-1.78s0-1.188,0-1.781a3.3,3.3,0,0,1,2.725-3.118,7.442,7.442,0,0,1,1.146-.052c1.356,0,2.713.009,4.069.007.162,0,.221.028.221.208q-.009,8.081,0,16.161a3.275,3.275,0,0,1-1.02,2.5,3.057,3.057,0,0,1-2.1.905c-1.646.018-3.291.01-4.937.019-.176,0-.129-.113-.129-.2q0-3.252,0-6.505c.075,0,.15-.01.225-.01q2.4,0,4.8,0a2.918,2.918,0,0,0,1.284-.241,1.516,1.516,0,0,0,.919-1.74,1.624,1.624,0,0,0-1.185-1.144A3.043,3.043,0,0,0,32,13.451a.32.32,0,0,1,.191-.066,1.612,1.612,0,0,0,1.156-.819,1.453,1.453,0,0,0-.913-2.053,3.8,3.8,0,0,0-1.168-.163Z"/><path class="cls-4" d="M26.645,10.35h4.616a3.8,3.8,0,0,1,1.168.163,1.453,1.453,0,0,1,.913,2.053,1.612,1.612,0,0,1-1.156.819.32.32,0,0,0-.191.066,3.043,3.043,0,0,1,.663.129,1.624,1.624,0,0,1,1.185,1.144,1.516,1.516,0,0,1-.919,1.74,2.918,2.918,0,0,1-1.284.241q-2.4,0-4.8,0c-.075,0-.15.006-.225.01q0-3.111,0-6.222C26.607,10.439,26.6,10.388,26.645,10.35Zm2.693,5.3v-.008c.314,0,.628.01.94,0a.831.831,0,0,0,.808-.862.866.866,0,0,0-.837-.866c-.621-.008-1.242,0-1.863-.007-.111,0-.134.038-.133.14,0,.486,0,.973,0,1.46,0,.112.026.152.146.148C28.711,15.645,29.025,15.65,29.338,15.65Zm-.123-2.719h0c.27,0,.539.006.808,0a.8.8,0,0,0,.806-.981.835.835,0,0,0-.843-.617c-.532,0-1.065,0-1.6,0-.109,0-.136.035-.135.139,0,.443.006.886,0,1.328,0,.125.047.143.155.141C28.676,12.927,28.946,12.931,29.215,12.931Z"/><path class="cls-4" d="M17.452,11.216a7.008,7.008,0,0,1,4.532-1.034,14.057,14.057,0,0,1,2.55.357c.145.031.19.086.186.234-.012.392,0,.784,0,1.2-.206-.091-.391-.178-.58-.254a5.929,5.929,0,0,0-2.006-.447,4.085,4.085,0,0,0-1.206.092,2.036,2.036,0,0,0-1.586,1.947,2.2,2.2,0,0,0,.8,2.019,2.369,2.369,0,0,0,1.272.457,6,6,0,0,0,3.1-.622l.155-.068c.01,0,.024,0,.05,0,0,.422,0,.845,0,1.269,0,.093-.052.109-.126.128a13.328,13.328,0,0,1-1.56.286,11.316,11.316,0,0,1-3.461-.062,4.533,4.533,0,0,1-2.054-.857.287.287,0,0,0-.067-.028Q17.452,13.528,17.452,11.216Z"/><path class="cls-4" d="M8.31,15.1a7.5,7.5,0,0,0,1.935.635,3.662,3.662,0,0,0,1.029.065,1.522,1.522,0,0,0,1.619-1.554c.017-1.236.009-2.472,0-3.709,0-.167.045-.208.209-.206.816.008,1.632.006,2.448,0,.147,0,.205.024.2.189-.009,1.262.006,2.523-.011,3.785a2.205,2.205,0,0,1-.959,1.847,3.41,3.41,0,0,1-1.128.5,8.642,8.642,0,0,1-2.42.213c-.063,0-.125,0-.188,0s-.136-.015-.2-.02a14.345,14.345,0,0,1-2.592-.38c0-.386,0-.772,0-1.158C8.254,15.233,8.233,15.152,8.31,15.1Z"/><path class="cls-5" d="M11.05,16.863c-.068-.007-.136-.015-.2-.02a14.345,14.345,0,0,1-2.592-.38q0,1.16,0,2.32v4.454c0,.085-.025.168.124.167.852-.009,1.7-.008,2.557-.01m0,0c.791,0,1.583.02,2.373,0a3.129,3.129,0,0,0,2.042-.855,3.214,3.214,0,0,0,1.086-2.49q0-8.118,0-16.237c0-.155-.04-.2-.2-.195-1.495,0-2.989,0-4.484,0-.188,0-.376.02-.564.03a3,3,0,0,0-1.353.463A3.268,3.268,0,0,0,8.267,7q-.006,3.956,0,7.91c0,.067-.018.139.044.192a7.5,7.5,0,0,0,1.935.635,3.662,3.662,0,0,0,1.029.065.209.209,0,0,1-.154-.175.209.209,0,0,0,.154.175,1.522,1.522,0,0,0,1.619-1.554c.017-1.236.009-2.472,0-3.709,0-.167.045-.208.209-.206.816.008,1.632.006,2.448,0,.147,0,.205.024.2.189-.009,1.262.006,2.523-.011,3.785a2.205,2.205,0,0,1-.959,1.847,3.41,3.41,0,0,1-1.128.5,8.642,8.642,0,0,1-2.42.213c-.063,0-.125,0-.188,0"/><path class="cls-6" d="M29.338,15.65c-.313,0-.627-.005-.94,0-.12,0-.147-.036-.146-.148.006-.487.005-.974,0-1.46,0-.1.022-.141.133-.14.621.006,1.242,0,1.863.007a.866.866,0,0,1,.837.866.831.831,0,0,1-.808.862"/><path class="cls-7" d="M29.215,12.931c-.269,0-.539,0-.808,0-.108,0-.157-.016-.155-.141.007-.442.006-.885,0-1.328,0-.1.026-.14.135-.139.533.006,1.066,0,1.6,0a.835.835,0,0,1,.843.617.8.8,0,0,1-.806.981c-.269.007-.538,0-.808,0Z"/></g></g></svg>