<svg xmlns="http://www.w3.org/2000/svg" viewBox="0 0 43 27"><defs><style>.cls-1{fill:#fff;}.cls-2{fill:#38a7e4;}.cls-3{fill:#ef3120;}.cls-4{fill:#fbc707;}</style></defs><title>vendor_elo</title><g id="Layer_2" data-name="Layer 2"><g id="Layer_1-2" data-name="Layer 1"><path d="M0,22.988V4.013a1.445,1.445,0,0,0,.093-.431A4.521,4.521,0,0,1,4.561,0H38.372a5.857,5.857,0,0,1,.621.032,4.489,4.489,0,0,1,4,4.38q.017,9.075,0,18.15A4.481,4.481,0,0,1,39.446,26.9a1.973,1.973,0,0,0-.485.105H4.036c-.021-.043-.063-.033-.1-.038A4.518,4.518,0,0,1,.1,23.436,1.67,1.67,0,0,0,0,22.988Z"/><path id="path70" class="cls-1" d="M15.1,17.235l0,0-.131-.088a3.657,3.657,0,0,1-1.7,1.413A3.317,3.317,0,0,1,9.621,18.2l-.086.129,0,0L7.937,20.7a6.8,6.8,0,0,0,1.268.691,6.647,6.647,0,0,0,5.341-.074,6.563,6.563,0,0,0,2.982-2.467Zm-4.981-5.853a3.43,3.43,0,0,0-2.091,3.642l6.287-2.691a3.349,3.349,0,0,0-4.2-.951M5.944,18.609a7.917,7.917,0,0,1-.478-.913,6.664,6.664,0,0,1-.147-5.07A6.706,6.706,0,0,1,8.941,8.694a7.01,7.01,0,0,1,6.406.464,6.814,6.814,0,0,1,2.859,3.43c.088.2.164.421.239.605Z"/><path id="path74" class="cls-1" d="M22.816,5.2V18.39l2.062.831-1.172,2.718L21.43,21a2.587,2.587,0,0,1-1.123-.938,2.94,2.94,0,0,1-.44-1.634V5.2Z"/><path id="path78" class="cls-2" d="M28.159,15.03a3.724,3.724,0,0,1,1.289-2.815L27.332,9.869a6.865,6.865,0,0,0-.006,10.322l2.113-2.349a3.721,3.721,0,0,1-1.28-2.812"/><path id="path82" class="cls-3" d="M31.919,18.773a3.828,3.828,0,0,1-1.193-.194l-1.01,2.989a6.954,6.954,0,0,0,9-5.146l-3.107-.63a3.757,3.757,0,0,1-3.687,2.981"/><path id="path86" class="cls-4" d="M31.928,8.141a7,7,0,0,0-2.2.352l1,2.991a3.827,3.827,0,0,1,1.193-.192,3.756,3.756,0,0,1,3.684,3l3.107-.627a6.924,6.924,0,0,0-6.788-5.521"/></g></g></svg>