<svg xmlns="http://www.w3.org/2000/svg" viewBox="0 0 43 27"><defs><style>.cls-1{fill:#fff;}.cls-2{fill:#4d4d4d;}.cls-3{fill:#f36e00;}</style></defs><title>vendor_discover</title><g id="Layer_2" data-name="Layer 2"><g id="Layer_1-2" data-name="Layer 1"><rect class="cls-1" x="4.934" y="8.685" width="33.027" height="8.491"/><path class="cls-2" d="M0,23.024V3.975c.056-.022.036-.073.043-.113A4.466,4.466,0,0,1,3.314.166C3.549.093,3.8.055,4.036,0h34.89a2.344,2.344,0,0,0,.47.094A4.5,4.5,0,0,1,43,4.554q0,6.356,0,12.711c0,.063,0,.125-.006.188-.066.036-.134.069-.2.11a46.407,46.407,0,0,1-5.446,3.02,73.646,73.646,0,0,1-9.236,3.663,88.905,88.905,0,0,1-9.477,2.46,12.11,12.11,0,0,0-1.362.286c-.057,0-.113.006-.17.006q-6.314,0-12.628,0A4.514,4.514,0,0,1,.106,23.467,1.355,1.355,0,0,0,0,23.024ZM22.458,10.212a3.026,3.026,0,0,0-1.883.514,2.258,2.258,0,0,0-.52,3.215,2.756,2.756,0,0,0,3.916.371,2.222,2.222,0,0,0,.674-2.479A2.5,2.5,0,0,0,22.458,10.212ZM6.1,12.661v1.067c0,.362,0,.724,0,1.086,0,.066-.037.163.093.159a10.662,10.662,0,0,0,2.157-.1A2.359,2.359,0,0,0,10.105,12.8a2.255,2.255,0,0,0-1.989-2.38,16.2,16.2,0,0,0-1.843-.059c-.146-.006-.176.044-.175.18C6.105,11.25,6.1,11.955,6.1,12.661Zm30.35,2.312a.275.275,0,0,0-.008-.053c-.459-.586-.916-1.174-1.381-1.755-.1-.121-.067-.15.065-.186a1.312,1.312,0,0,0,.656-2.084,1.64,1.64,0,0,0-1.285-.523c-.47-.017-.942,0-1.413-.007-.142,0-.163.056-.162.177,0,.537,0,1.075,0,1.612,0,.88,0,1.761,0,2.642,0,.115.007.19.156.18a3.805,3.805,0,0,1,.565,0c.182.014.248-.029.241-.23-.018-.5-.007-1,0-1.5,0-.046-.021-.107.048-.126a.09.09,0,0,1,.1.038c.026.034.053.069.078.105q.56.789,1.119,1.577c.042.059.073.131.168.131C35.742,14.971,36.092,14.973,36.451,14.973ZM29.6,12.667V14.8c0,.086-.023.172.123.172.817-.006,1.634,0,2.451,0,.1,0,.129-.037.125-.131a4.395,4.395,0,0,1,0-.487c.01-.142-.038-.182-.179-.179-.465.008-.931,0-1.4.006-.129,0-.176-.033-.173-.167.009-.3.01-.6,0-.9,0-.137.034-.184.178-.181.453.009.905,0,1.358.005.112,0,.159-.031.154-.149a4.059,4.059,0,0,1,0-.468c.008-.131-.038-.172-.17-.17-.453.007-.905,0-1.358.005-.123,0-.166-.031-.161-.157.009-.231.01-.462,0-.693-.006-.133.038-.169.17-.167.465.008.93,0,1.395.006.132,0,.2-.02.183-.171a2.6,2.6,0,0,1,0-.45c.011-.139-.049-.163-.174-.162-.779,0-1.558.008-2.338,0-.166,0-.193.057-.191.2C29.6,11.267,29.6,11.967,29.6,12.667Zm-16.034,2.4a1.928,1.928,0,0,0,.395-.051A1.494,1.494,0,0,0,15.2,13.205a1.311,1.311,0,0,0-.9-.91c-.315-.14-.657-.217-.958-.388a.416.416,0,0,1,.009-.77.918.918,0,0,1,.885,0c.125.062.227.248.346.205s.2-.214.294-.33c.036-.043.067-.092.107-.131.076-.074.051-.122-.027-.175a2.016,2.016,0,0,0-2.1-.248,1.21,1.21,0,0,0-.75,1.158,1.074,1.074,0,0,0,.753,1.057c.322.137.655.251.978.387a.568.568,0,0,1,.4.611.627.627,0,0,1-.524.542,1.071,1.071,0,0,1-1.153-.451c-.079-.108-.122-.111-.211-.023-.128.129-.264.25-.4.369-.072.062-.075.107-.014.185A1.984,1.984,0,0,0,13.566,15.072ZM26.845,13.4c-.082-.038-.084-.108-.107-.163-.379-.9-.759-1.795-1.129-2.7a.254.254,0,0,0-.29-.19,5.959,5.959,0,0,1-.641,0c-.149-.007-.189.02-.122.173.626,1.417,1.253,2.834,1.859,4.259a.413.413,0,0,0,.487.3.235.235,0,0,0,.238-.156c.261-.6.531-1.2.8-1.8.387-.868.772-1.736,1.163-2.6.06-.133.059-.187-.111-.178-.226.011-.453.01-.679,0a.212.212,0,0,0-.238.156c-.231.56-.47,1.117-.707,1.674C27.194,12.587,27.019,12.992,26.845,13.4Zm-7.552-1.826c0-.347,0-.657,0-.968,0-.091-.07-.107-.132-.135a2.637,2.637,0,0,0-1.749-.135,2.4,2.4,0,0,0-1.842,2.772,2.606,2.606,0,0,0,3.62,1.731c.055-.023.1-.05.1-.118v-1a1.633,1.633,0,0,1-1.275.509,1.555,1.555,0,0,1-1.2-.607,1.609,1.609,0,0,1,2.476-2.049Zm-8.749,1.111c0,.706,0,1.411,0,2.117,0,.143.042.182.181.175.213-.011.427-.007.64,0,.1,0,.143-.02.143-.133q-.006-2.172,0-4.345c0-.1-.03-.133-.129-.131-.207.005-.415.011-.621,0-.16-.009-.216.032-.213.2C10.55,11.274,10.544,11.979,10.544,12.684Z"/><path class="cls-3" d="M42.993,17.453q0,1.49.006,2.98,0,1.077,0,2.155a4.513,4.513,0,0,1-3.486,4.3A4.994,4.994,0,0,1,38.45,27Q27.975,27,17.5,27c-.075,0-.15,0-.225-.006a12.11,12.11,0,0,1,1.362-.286,88.905,88.905,0,0,0,9.477-2.46,73.646,73.646,0,0,0,9.236-3.663,46.407,46.407,0,0,0,5.446-3.02C42.859,17.522,42.927,17.489,42.993,17.453Z"/><path class="cls-3" d="M22.458,10.212a2.5,2.5,0,0,1,2.187,1.621,2.222,2.222,0,0,1-.674,2.479,2.756,2.756,0,0,1-3.916-.371,2.258,2.258,0,0,1,.52-3.215A3.026,3.026,0,0,1,22.458,10.212Z"/><path class="cls-2" d="M7.051,12.637c0-.444,0-.887,0-1.331,0-.119.028-.165.156-.163a1.972,1.972,0,0,1,1.4.379,1.461,1.461,0,0,1,.471,1.528,1.386,1.386,0,0,1-1.115,1.069,3.648,3.648,0,0,1-.731.065c-.139,0-.185-.037-.183-.179C7.056,13.549,7.051,13.093,7.051,12.637Z"/><path class="cls-2" d="M33.879,11.776c0-.181.006-.362,0-.542-.006-.118.038-.151.151-.147a2.3,2.3,0,0,1,.6.063.587.587,0,0,1,.453.555.632.632,0,0,1-.371.672,1.723,1.723,0,0,1-.739.107c-.1,0-.089-.063-.089-.127Z"/></g></g></svg>