<svg xmlns="http://www.w3.org/2000/svg" viewBox="0 0 43 27"><defs><style>.cls-1{fill:#0078bd;}.cls-2{fill:#004b8d;}.cls-3{fill:#fff;}</style></defs><title>vendor_airplus</title><g id="Layer_2" data-name="Layer 2"><g id="Layer_1-2" data-name="Layer 1"><path class="cls-1" d="M0,22.988V4.013a1.445,1.445,0,0,0,.093-.431A4.521,4.521,0,0,1,4.561,0H38.372a5.857,5.857,0,0,1,.621.032,4.489,4.489,0,0,1,4,4.38q.017,9.075,0,18.15A4.481,4.481,0,0,1,39.446,26.9a1.973,1.973,0,0,0-.485.105H4.036c-.021-.043-.063-.033-.1-.038A4.518,4.518,0,0,1,.1,23.436,1.67,1.67,0,0,0,0,22.988Z"/><path class="cls-2" d="M0,22.992a1.728,1.728,0,0,1,.1.444,4.537,4.537,0,0,0,1.343,2.355H41.55a4.4,4.4,0,0,0,1.442-3.229c0-.388,0-.776,0-1.164H0ZM42.992,4.412a4.381,4.381,0,0,0-1.456-3.2H1.461A4.524,4.524,0,0,0,.093,3.582,1.445,1.445,0,0,1,0,4.013v16.2H42.992Q43,12.31,42.992,4.412Z"/><path class="cls-3" d="M12.337,7.747A.553.553,0,1,0,12.89,7.2a.544.544,0,0,0-.553.549"/><path class="cls-3" d="M11.132,13.9a1.8,1.8,0,0,1-.414-.607L8.073,7.62h-.4L5.151,13.138c-.286.6-.512.862-1.006.871v.373l2.088.009,0-.382h-.1c-.5,0-.553-.127-.553-.412a1.469,1.469,0,0,1,.158-.538l.214-.452H9.392l.326.658a.757.757,0,0,1,.068.3c0,.335-.216.433-.76.442v.357h2.849v-.347A1.35,1.35,0,0,1,11.132,13.9ZM6.208,12.113,7.645,8.888,9.2,12.144Z"/><path class="cls-3" d="M11.694,14.366h2.654v-.348c-.572-.009-.877-.176-.877-.726V9.516H11.663v.336l.417.039c.4.02.5.585.5,1.085l-.016,2.286c0,.579-.235.736-.867.755Z"/><path class="cls-3" d="M14.937,14.366h2.686v-.345c-.671-.03-.86-.082-.86-.641,0,0-.065-2.231,0-2.452a1.17,1.17,0,0,1,.808-.787.568.568,0,0,1,.662.342l.581-.493a.944.944,0,0,0-.878-.576A1.4,1.4,0,0,0,16.7,10.479l.014-.921-1.742.011-.007.271h.157c.762,0,.712.561.712,1.091l.017,2.433c0,.588-.3.618-.915.657Z"/><path class="cls-3" d="M21.848,7.736l-2.96.017V8.1c.848.029.921.246.967.462v4.4c0,.883-.139,1.108-.967,1.108v.312h2.939V14.07c-.877-.009-1.015-.206-1.015-1.108V11.914H21.3a8.111,8.111,0,0,0,1.987-.2,1.826,1.826,0,0,0,1.339-1.86C24.625,8.279,23.445,7.736,21.848,7.736ZM21.182,11.4c-.172,0-.384-.022-.384-.022v-3.1s.372-.013.581-.017c2.181-.036,2.251.956,2.251,1.639S23.55,11.4,21.182,11.4Z"/><path class="cls-3" d="M24.708,14.4h2.673v-.385c-.553-.011-.906-.1-.906-.653L26.46,7.736h-1.8v.312l.331.014c.483,0,.6.206.6.705l-.016,4.512c0,.58-.229.73-.859.749V14.4Z"/><path class="cls-3" d="M32.512,13.076V9.567l-1.819,0v.322c.662,0,.911.127.911.694a13.044,13.044,0,0,1-.086,2.589,1.44,1.44,0,0,1-1.668.8c-.723-.218-.721-.66-.721-1.492V9.567l-1.8,0v.322h.041c.65,0,.9.175.9.812v1.755c0,1.463.321,1.857,1.447,2.022a1.866,1.866,0,0,0,1.927-.933v.836l1.763-.019v-.379a1.692,1.692,0,0,1-.432-.047c-.383-.1-.464-.44-.464-.863"/><path class="cls-3" d="M34.05,14.366h.311c.029-.118,0-.311.122-.311a2.949,2.949,0,0,0,1.732.36,1.5,1.5,0,0,0,1.471-1.424,1.224,1.224,0,0,0-.793-1.207,12.589,12.589,0,0,0-1.275-.45c-.822-.247-.766-.563-.78-.719-.033-.36.394-.7.847-.74.5-.045,1.384.137,1.522.88h.371l-.006-1.244h-.349c-.039.108-.092.3-.181.3a3.267,3.267,0,0,0-1.29-.4c-.912.05-1.705.635-1.705,1.371a1.29,1.29,0,0,0,.8,1.211,12.318,12.318,0,0,0,1.5.555.737.737,0,0,1,.539.728c0,.443-.453.735-.978.735-.62,0-1.312-.1-1.537-1.03H34.05v1.382Z"/><path class="cls-3" d="M4.388,22.5h.345v2.094H4.388Z"/><path class="cls-3" d="M26.182,22.5h.344v2.094h-.344Z"/><path class="cls-3" d="M6.22,22.5h.36l.982,1.579h.014V22.5h.332v2.094H7.554l-.987-1.579H6.551v1.578H6.22Z"/><path class="cls-3" d="M17.684,22.5h.359l.982,1.579h.015V22.5h.332v2.094h-.355l-.987-1.579h-.016v1.578h-.33Z"/><path class="cls-3" d="M30.935,22.5h.359l.983,1.579h.014V22.5h.333v2.094h-.355l-.988-1.579h-.015v1.578h-.331V22.5Z"/><path class="cls-3" d="M9.058,22.5h1.683v.3h-.679v1.8H9.733v-1.8H9.058Z"/><path class="cls-3" d="M23.265,22.5h1.683v.3h-.679v1.8H23.94v-1.8h-.675v-.3Z"/><path class="cls-3" d="M11.823,22.5h1.5v.294H12.166v.582h1.069v.274H12.169v.658h1.173v.286H11.823Z"/><path class="cls-3" d="M14.651,22.5h.974c.46,0,.69.227.69.574a.5.5,0,0,1-.353.52V23.6c.126.019.322.112.322.443a.945.945,0,0,0,.113.549h-.353a.572.572,0,0,1-.056-.308c.006-.387-.106-.576-.445-.576h-.56v.884h-.332Zm.328.975H15.6c.25,0,.394-.119.394-.351,0-.266-.172-.339-.4-.339h-.621Z"/><path class="cls-3" d="M21.331,22.5h.349l.812,2.094h-.35l-.207-.57h-.873l-.211.57h-.328Zm-.186,1.277h.711l-.337-.94h-.036Z"/><path class="cls-3" d="M34.6,22.5h.349l.811,2.094h-.349l-.208-.57h-.872l-.211.57h-.328Zm-.187,1.277h.711l-.337-.94h-.035Z"/><path class="cls-3" d="M29.792,23.544a1,1,0,1,1-1-1.093A1,1,0,0,1,29.792,23.544Zm-1.678,0c0,.432.2.83.676.83s.683-.388.683-.823-.2-.846-.684-.846S28.114,23.115,28.114,23.549Z"/><path class="cls-3" d="M36.965,22.5H37.3v1.8h1.075v.3H36.965Z"/></g></g></svg>