<svg xmlns="http://www.w3.org/2000/svg" viewBox="0 0 43 27"><defs><style>.cls-1{fill:#f58127;}.cls-2{fill:#fff;}</style></defs><title>vendor_exchangebank</title><g id="Layer_2" data-name="Layer 2"><g id="Layer_1-2" data-name="Layer 1"><path class="cls-1" d="M0,22.988V4.013a1.445,1.445,0,0,0,.093-.431A4.521,4.521,0,0,1,4.561,0H38.372a5.857,5.857,0,0,1,.621.032,4.489,4.489,0,0,1,4,4.38q.017,9.075,0,18.15A4.481,4.481,0,0,1,39.446,26.9a1.973,1.973,0,0,0-.485.105H4.036c-.021-.043-.063-.033-.1-.038A4.518,4.518,0,0,1,.1,23.436,1.67,1.67,0,0,0,0,22.988Z"/><rect class="cls-2" x="8.386" y="2.427" width="26.477" height="22.063"/><path class="cls-1" d="M6.033,11.492q0-5.462-.005-10.923c0-.227.05-.32.359-.32q12.966.012,25.932.01c2.664,0,4.9,1.579,5.378,3.759a3.6,3.6,0,0,1,.066.761q.008,10.843.012,21.688c0,.23-.1.288-.353.284-.528-.009-1.056,0-1.583,0l-24.381,0a5.34,5.34,0,0,1-5.237-3.4,4.024,4.024,0,0,1-.19-1.223Q6.037,16.809,6.033,11.492ZM16.3,17.12v0c1.742,0,3.483,0,5.225,0,.264,0,.346.074.345.291-.008,1.882,0,3.764-.006,5.646,0,.327.016.345.407.345q3.072,0,6.143,0a8.016,8.016,0,0,0,1.073-.042A4.6,4.6,0,0,0,32.9,21.527a4.226,4.226,0,0,0,.433-3.857A3.12,3.12,0,0,0,31.479,15.7c-.351-.148-.349-.191-.022-.4a2.92,2.92,0,0,0,1.3-1.668,4.211,4.211,0,0,0-.166-2.8A2.647,2.647,0,0,0,31.123,9.39a6.724,6.724,0,0,0-2.6-.477c-2.089-.013-4.179,0-6.269-.007-.312,0-.394.083-.393.336.012,1.671.007,3.342.006,5.013,0,.372,0,.371-.432.371H14.117c-.182,0-.37.019-.368-.215.006-.923,0-1.847.009-2.77.005-.358.049-.381.488-.381,1.625,0,3.251,0,4.876.005.279,0,.4-.046.39-.3-.021-.58-.016-1.161,0-1.741.006-.244-.1-.317-.391-.316-1.668.01-3.336,0-5,.01-.275,0-.374-.074-.37-.3.012-.774,0-1.548,0-2.322,0-.408,0-.41.485-.41,2.132,0,4.264,0,6.4,0,.251,0,.33-.061.324-.27-.015-.589-.007-1.179-.007-1.768,0-.37,0-.371-.436-.371H11.394c-.1,0-.19,0-.285,0-.232,0-.357.068-.332.283a5.329,5.329,0,0,1,.031.632c-.015,4.133.04,8.266-.032,12.4,0,.249.08.341.394.339C12.879,17.114,14.589,17.12,16.3,17.12Z"/><path class="cls-1" d="M24.921,19.056c0-.545.01-1.09,0-1.635-.006-.231.065-.33.371-.326,1,.015,2,0,3.007.006,1.169.007,1.872.494,2.03,1.454a2.507,2.507,0,0,1-.091,1.46,2.3,2.3,0,0,1-1.706,1.037c-1.1.011-2.2,0-3.292.009-.23,0-.321-.071-.318-.264C24.926,20.216,24.921,19.636,24.921,19.056Z"/><path class="cls-1" d="M26.658,11.254c.411,0,.823-.008,1.234,0,1.484.033,2,.734,1.931,1.857a1.483,1.483,0,0,1-.448,1.074,2.107,2.107,0,0,1-1.462.466c-.865.007-1.73,0-2.595.01-.3,0-.408-.071-.4-.333.018-.923.016-1.846,0-2.769,0-.243.085-.328.38-.316.452.019.907.005,1.361.005Z"/></g></g></svg>