<svg xmlns="http://www.w3.org/2000/svg" viewBox="0 0 43 27"><defs><style>.cls-1{fill:#e6e6e6;}.cls-2{fill:#233788;}.cls-3{fill:#ee2722;}</style></defs><title>vendor_israeli</title><g id="Layer_2" data-name="Layer 2"><g id="Layer_1-2" data-name="Layer 1"><path class="cls-1" d="M0,22.988V4.013a1.445,1.445,0,0,0,.093-.431A4.521,4.521,0,0,1,4.561,0H38.372a5.857,5.857,0,0,1,.621.032,4.489,4.489,0,0,1,4,4.38q.017,9.075,0,18.15A4.481,4.481,0,0,1,39.446,26.9a1.973,1.973,0,0,0-.485.105H4.036c-.021-.043-.063-.033-.1-.038A4.518,4.518,0,0,1,.1,23.436,1.67,1.67,0,0,0,0,22.988Z"/><path id="path46" class="cls-2" d="M32.19,10.188a1.641,1.641,0,0,0,0-2.331l-5.2-5.175a1.668,1.668,0,0,0-2.345,0l-5.2,5.175a1.641,1.641,0,0,0,0,2.331l5.2,5.173a1.663,1.663,0,0,0,2.345,0Z"/><path id="path50" class="cls-3" d="M22.045,12.762l2.589-2.574a1.641,1.641,0,0,0,.219-2.061l-3.739,3.721-.973-.969,3.776-3.734-.933-.928L19.232,9.926a1.643,1.643,0,0,1,.219-2.064l2.592-2.576-2.613-2.6a1.663,1.663,0,0,0-2.344,0l-5.2,5.172a1.642,1.642,0,0,0,0,2.332l5.2,5.175a1.665,1.665,0,0,0,2.344,0l2.5-2.488,0,0,.116-.114-.007-.008Z"/><path id="path54" class="cls-2" d="M4.492,23.159a8.4,8.4,0,0,1-2.76-.383V17.417H3.554v4.26H4.635a2.122,2.122,0,0,0,.6-.044c.032-.022.111-.065.111-.341v-2.02c0-.373-.178-.449-.341-.449H4.226V17.582a3.668,3.668,0,0,1,1.449-.241c.728,0,1.48.537,1.48,1.964v1.911c0,1.548-1.381,1.943-2.663,1.943"/><path id="path58" class="cls-2" d="M10.941,23.071V19.206c0-.427-.408-.383-.915-.383H7.7V17.56a22.8,22.8,0,0,1,2.407-.22c1.282,0,2.663.428,2.663,1.965v3.766Z"/><path id="path62" class="cls-2" d="M18.485,21.194c0,1.548-1.381,1.977-2.663,1.977a20.319,20.319,0,0,1-2.32-.22V21.677h2.2c.506,0,.949.055.949-.372v-2.1c0-.418-.454-.385-.949-.385H13.5V17.559a20.5,20.5,0,0,1,2.32-.218c1.282,0,2.663.427,2.663,1.975Z"/><path id="path66" class="cls-2" d="M23.609,23.4,20.87,20.107a1.669,1.669,0,0,1,.145.549v2.415H19.191V20.635a1.744,1.744,0,0,1,.786-1.561l-.807-.954,1.3-1,2.054,2.428c.221,0,.376-.167.376-.495V17.417H24.68v1.537a1.579,1.579,0,0,1-1.258,1.669l1.48,1.769Z"/><path id="path70" class="cls-2" d="M28.49,23.071V19.206c0-.427-.409-.383-.915-.383H25.243V17.56a22.8,22.8,0,0,1,2.407-.22c1.282,0,2.664.428,2.664,1.965v3.766Z"/><path id="path74" class="cls-2" d="M35.16,23.193c-2.695,0-3.864-.582-3.987-.681V17.417h1.691v4.292a6.82,6.82,0,0,0,1.579.079l-.541-.573v-3.8h1.524v4.347c.629,0,1.072-.031,1.072-.5V17.417h1.7v3.81c0,1.537-1.745,1.966-3.039,1.966"/><path id="path78" class="cls-2" d="M39.435,20.271V18.823H38.96v-1.4h2.308v2.844Z"/></g></g></svg>