<svg xmlns="http://www.w3.org/2000/svg" viewBox="0 0 43 27"><defs><style>.cls-1{fill:#254192;}.cls-2{fill:#fff;}</style></defs><title>vendor_visaelectron</title><g id="Layer_2" data-name="Layer 2"><g id="Layer_1-2" data-name="Layer 1"><rect class="cls-1" width="43" height="27" rx="4.406"/><path class="cls-2" d="M17.052,7.068,12.47,18H9.48L7.225,9.276a1.2,1.2,0,0,0-.672-.96,11.81,11.81,0,0,0-2.79-.93l.067-.318H8.643a1.319,1.319,0,0,1,1.3,1.114l1.192,6.327L14.08,7.068Zm4.041,0L18.755,18H15.927L18.265,7.068Zm7.672,7.363c.012-2.885-3.988-3.045-3.962-4.334.01-.391.383-.809,1.2-.915a5.347,5.347,0,0,1,2.789.489l.495-2.319a7.623,7.623,0,0,0-2.645-.483c-2.8,0-4.763,1.485-4.778,3.613-.019,1.574,1.4,2.452,2.475,2.976,1.1.535,1.472.879,1.467,1.358-.008.733-.881,1.058-1.692,1.07a5.9,5.9,0,0,1-2.905-.691l-.513,2.4a8.6,8.6,0,0,0,3.144.58c2.973,0,4.917-1.468,4.925-3.741ZM36.148,18h2.615L36.479,7.068H34.066a1.287,1.287,0,0,0-1.2.8L28.618,18h2.97l.589-1.633h3.629Zm-3.157-3.873,1.49-4.105.855,4.105Zm-8.278,6.882H23.564v1.07h1.285V22.4H23.177V19.433h1.606v.322H23.564v.937h1.149Zm.73-1.734h.387V22.4h-.387Zm1.364,2.13a.681.681,0,0,0,.731.74,1.382,1.382,0,0,0,.59-.11l.07.277a1.725,1.725,0,0,1-.713.137.993.993,0,0,1-1.047-1.079,1.03,1.03,0,0,1,1-1.144.9.9,0,0,1,.88,1,.927.927,0,0,1-.013.18Zm1.136-.277a.55.55,0,0,0-.537-.625.636.636,0,0,0-.595.625Zm2.482,1.2a1.506,1.506,0,0,1-.612.123,1.012,1.012,0,0,1-1.061-1.088A1.086,1.086,0,0,1,29.9,20.226a1.224,1.224,0,0,1,.537.114l-.088.3a.957.957,0,0,0-.449-.1.739.739,0,0,0-.753.806.73.73,0,0,0,.739.8,1.115,1.115,0,0,0,.476-.1Zm1.087-2.567v.511h.554v.294h-.554v1.15c0,.264.074.413.29.413a.719.719,0,0,0,.225-.026l.017.3a1.063,1.063,0,0,1-.343.053.552.552,0,0,1-.418-.163.83.83,0,0,1-.15-.559V20.564H30.8V20.27h.33v-.4Zm1.095,1.175c0-.251-.005-.466-.018-.664h.34l.017.422h.013a.644.644,0,0,1,.594-.466.863.863,0,0,1,.106.008V20.6a.591.591,0,0,0-.132-.009.538.538,0,0,0-.519.493,1.137,1.137,0,0,0-.014.181V22.4h-.387Zm3.433.383a1.044,1.044,0,0,1-1.061,1.132,1.015,1.015,0,0,1-1.021-1.1,1.041,1.041,0,0,1,1.056-1.127A1.007,1.007,0,0,1,36.04,21.317Zm-1.686.023c0,.466.264.818.643.818s.647-.348.647-.827c0-.361-.181-.815-.638-.815S34.354,20.939,34.354,21.34Zm2.28-.494c0-.224-.005-.4-.018-.576h.343l.023.352h.008a.79.79,0,0,1,.7-.4c.294,0,.752.176.752.906V22.4H38.06V21.172c0-.343-.128-.629-.493-.629a.557.557,0,0,0-.519.4.541.541,0,0,0-.027.18V22.4h-.387Z"/></g></g></svg>