<svg xmlns="http://www.w3.org/2000/svg" viewBox="0 0 43 27"><defs><style>.cls-1{fill:#e6e6e6;}.cls-2{fill:#ea221b;}.cls-3{fill:#0198de;}.cls-4{fill:#6b6abc;}.cls-5{fill:#231f20;}</style></defs><title>vendor_maestro</title><g id="Layer_2" data-name="Layer 2"><g id="Layer_1-2" data-name="Layer 1"><rect class="cls-1" width="43" height="27" rx="4.406"/><path class="cls-2" d="M21.516,17.775A7.286,7.286,0,0,1,18.5,19.236a7.835,7.835,0,0,1-7.694-2.261A7.472,7.472,0,0,1,8.67,12.32,7.663,7.663,0,0,1,10.2,6.81a7.729,7.729,0,0,1,5.332-3.124A7.827,7.827,0,0,1,21.5,5.28a.347.347,0,0,0,.033.018.141.141,0,0,0,0,.02,5.534,5.534,0,0,0-.734.642,7.905,7.905,0,0,0-.552,10.545A10.388,10.388,0,0,0,21.516,17.775Z"/><path class="cls-3" d="M21.529,5.318a.141.141,0,0,1,0-.02,8.047,8.047,0,0,1,10.092.21,7.545,7.545,0,0,1,2.769,5.167,7.982,7.982,0,0,1-12.76,7.173c-.03-.022-.056-.048-.085-.073a9,9,0,0,0,1.189-1.169,7.768,7.768,0,0,0,1.644-6.829A7.634,7.634,0,0,0,22.54,6.24,5.275,5.275,0,0,0,21.529,5.318Z"/><path class="cls-4" d="M21.529,5.318a5.275,5.275,0,0,1,1.011.922,7.634,7.634,0,0,1,1.839,3.537,7.768,7.768,0,0,1-1.644,6.829,9,9,0,0,1-1.189,1.169l-.015,0-.015,0a10.388,10.388,0,0,1-1.273-1.27A7.905,7.905,0,0,1,20.8,5.96,5.534,5.534,0,0,1,21.529,5.318Z"/><path class="cls-5" d="M13.3,21.558c.6-.367.907-.34,1.319.113a.873.873,0,0,1,.909-.343.728.728,0,0,1,.652.709c.017.437,0,.875.007,1.312,0,.081-.025.1-.106.108-.347.021-.346.024-.347-.319,0-.312,0-.625-.005-.937a.44.44,0,0,0-.446-.476.477.477,0,0,0-.529.446c-.023.373-.019.749-.013,1.123,0,.134-.036.181-.167.162a.509.509,0,0,0-.151,0c-.11.014-.137-.033-.136-.138,0-.368.008-.737,0-1.105a.451.451,0,0,0-.478-.488.5.5,0,0,0-.513.529c0,.35-.007.7,0,1.049,0,.128-.037.169-.159.153a.627.627,0,0,0-.15,0c-.1.012-.144-.014-.142-.129q.007-.918,0-1.836c0-.1.025-.138.124-.124a.314.314,0,0,0,.075,0C13.183,21.358,13.327,21.339,13.3,21.558Zm.013.017-.011-.011-.012.01.016.012Z"/><path class="cls-5" d="M18.347,23.2a1,1,0,0,1-1.418.01,1.178,1.178,0,0,1-.035-1.566,1,1,0,0,1,1.424-.067c.056-.06-.038-.182.057-.2a1.383,1.383,0,0,1,.375,0c.058,0,.037.07.037.109,0,.618,0,1.235,0,1.852,0,.1-.033.135-.129.122a.329.329,0,0,0-.094,0C18.39,23.485,18.289,23.435,18.347,23.2Zm.02-.793a.65.65,0,1,0-1.3.009.65.65,0,1,0,1.3-.009Z"/><path class="cls-5" d="M29.059,23.519a1.094,1.094,0,0,1-1.131-1.1,1.141,1.141,0,0,1,2.281,0A1.1,1.1,0,0,1,29.059,23.519Zm-.661-1.1a.649.649,0,0,0,.66.684.682.682,0,1,0,0-1.364A.647.647,0,0,0,28.4,22.414Z"/><path class="cls-5" d="M20.548,22.58c-.213,0-.427.007-.64,0-.15-.007-.153.048-.1.163a.653.653,0,0,0,.806.341.783.783,0,0,0,.31-.13c.086-.068.118-.033.17.043.168.246.172.243-.1.377a1.159,1.159,0,0,1-1.589-.451,1.118,1.118,0,0,1,.623-1.566,1.015,1.015,0,0,1,1.319,1.125c0,.1-.062.1-.138.1C20.988,22.579,20.768,22.58,20.548,22.58Zm-.217-.353c.151,0,.3,0,.451,0,.095,0,.1-.028.078-.108a.524.524,0,0,0-.491-.414.542.542,0,0,0-.567.37c-.041.1-.044.161.1.152S20.187,22.227,20.331,22.227Z"/><path class="cls-5" d="M22.654,23.509a1.82,1.82,0,0,1-.736-.169c-.14-.064-.162-.121-.079-.257s.143-.19.308-.09a1.083,1.083,0,0,0,.75.1.415.415,0,0,0,.17-.073.176.176,0,0,0-.03-.325.966.966,0,0,0-.309-.076,1.838,1.838,0,0,1-.528-.123.535.535,0,0,1-.36-.481.555.555,0,0,1,.3-.562,1.5,1.5,0,0,1,1.357.034c.071.033.067.074.027.131a.593.593,0,0,0-.069.132c-.042.1-.091.143-.21.078a1.052,1.052,0,0,0-.62-.11.636.636,0,0,0-.163.039.214.214,0,0,0-.153.213.191.191,0,0,0,.177.169c.2.039.4.061.591.106.379.086.561.3.542.629a.56.56,0,0,1-.274.463A1.259,1.259,0,0,1,22.654,23.509Z"/><path class="cls-5" d="M24.04,21.384c.416.078.428.069.428-.329a.532.532,0,0,0,0-.113c-.036-.184.043-.216.219-.222.207-.007.24.065.233.249-.015.4,0,.4.4.4a.725.725,0,0,0,.132,0c.185-.031.242.033.237.226,0,.164-.065.175-.2.176-.185,0-.424-.083-.542.037s-.026.345-.03.525a3.954,3.954,0,0,0,.007.449c.019.242.154.339.4.3.031,0,.061-.014.092-.017.08-.007.172-.108.219-.057a.976.976,0,0,1,.114.29c.031.076-.031.087-.07.1a1.08,1.08,0,0,1-.8.061.556.556,0,0,1-.39-.559c-.014-.33-.009-.661-.009-.992,0-.082,0-.146-.114-.146s-.258.052-.3-.024S24.04,21.509,24.04,21.384Z"/><path class="cls-5" d="M26.82,21.6a.714.714,0,0,1,.777-.264c.078.017.115.045.071.126a.3.3,0,0,0-.02.072c-.034.167-.1.247-.3.215-.327-.05-.517.144-.521.479,0,.356-.006.711,0,1.067,0,.131-.035.183-.167.164a.538.538,0,0,0-.15,0c-.119.016-.145-.033-.144-.147q.009-.879,0-1.759c0-.116.03-.163.146-.144a.157.157,0,0,0,.075,0C26.763,21.328,26.87,21.345,26.82,21.6Z"/><path class="cls-1" d="M13.313,21.575l-.007.011-.016-.012.012-.01Z"/><path class="cls-1" d="M18.367,22.408a.65.65,0,1,1-.642-.683A.654.654,0,0,1,18.367,22.408Z"/><path class="cls-1" d="M28.4,22.414a.647.647,0,0,1,.662-.68.682.682,0,1,1,0,1.364A.649.649,0,0,1,28.4,22.414Z"/><path class="cls-1" d="M20.331,22.227c-.144,0-.289-.007-.432,0s-.138-.047-.1-.152a.542.542,0,0,1,.567-.37.524.524,0,0,1,.491.414c.021.08.017.112-.078.108C20.632,22.222,20.482,22.227,20.331,22.227Z"/></g></g></svg>