<svg xmlns="http://www.w3.org/2000/svg" viewBox="0 0 43 27"><defs><style>.cls-1{fill:#254192;}.cls-2{fill:#fff;}</style></defs><title>vendor_visa</title><g id="Layer_2" data-name="Layer 2"><g id="Layer_1-2" data-name="Layer 1"><rect class="cls-1" width="43" height="27" rx="4.406"/><path class="cls-2" d="M17.052,7.482,12.47,18.414H9.48L7.225,9.689a1.2,1.2,0,0,0-.672-.96,11.856,11.856,0,0,0-2.79-.93l.067-.317H8.643A1.319,1.319,0,0,1,9.947,8.6l1.192,6.326,2.941-7.44Zm4.041,0L18.755,18.414H15.927L18.265,7.482Zm7.672,7.363c.012-2.885-3.988-3.045-3.962-4.334.01-.392.383-.809,1.2-.916a5.341,5.341,0,0,1,2.789.49l.495-2.32a7.623,7.623,0,0,0-2.645-.483c-2.8,0-4.763,1.485-4.778,3.613-.019,1.575,1.4,2.452,2.475,2.976,1.1.536,1.472.88,1.467,1.358-.008.734-.881,1.059-1.692,1.071a5.923,5.923,0,0,1-2.905-.691l-.513,2.4a8.581,8.581,0,0,0,3.144.58c2.973,0,4.917-1.468,4.925-3.74Zm7.383,3.569h2.615L36.479,7.482H34.066a1.287,1.287,0,0,0-1.2.8L28.618,18.414h2.97l.589-1.633h3.629Zm-3.157-3.873,1.49-4.106.855,4.106Z"/></g></g></svg>